<?xml version="1.0" encoding="UTF-8"?>
<svg width="274px" height="160px" viewBox="0 0 274 160" version="1.1" xmlns="http://www.w3.org/2000/svg" xmlns:xlink="http://www.w3.org/1999/xlink">
    <title>illust_sonandmother</title>
    <g id="스포츠강좌이용권" stroke="none" stroke-width="1" fill="none" fill-rule="evenodd">
        <g id="keepfit_voucher-copy" transform="translate(-1077.000000, -225.000000)" fill-rule="nonzero">
            <g id="masthead" transform="translate(0.000000, 100.000000)">
                <g id="illust_sonandmother" transform="translate(1077.000000, 125.000000)">
                    <g id="mother" transform="translate(-0.000000, 0.000000)">
                        <g id="Group" transform="translate(4.144066, 0.000000)">
                            <path d="M139.20102,109.787932 C137.106208,102.444018 136.043832,94.8448111 136.043832,87.2082604 L136.043832,55.3846309 C136.043832,45.7762461 133.004471,36.3854875 127.233839,28.7032224 C124.781038,25.4378653 122.057815,22.3930318 119.098293,19.5999491 C116.414345,17.0669875 112.775869,15.7988971 109.090713,16.0107284 C108.77361,12.9890739 106.995257,10.3134964 104.330947,8.85128096 C99.3062311,6.09361081 93.9158004,3.92217896 88.2520494,2.41746844 L51.1442268,2.41746844 L1.98004797,115.400496 L79.608817,139.073449 C100.248526,137.163426 120.445901,129.27609 137.424277,115.400496 C139.081583,114.04645 139.787902,111.8454 139.20102,109.787932 L139.20102,109.787932 Z" id="Path" fill="#D6948C"></path>
                            <path d="M29.947897,69.8261818 C29.947897,43.6949553 46.7688479,21.4948413 70.1665493,13.4710062 C74.4501774,12.0020302 78.4888153,9.94327456 82.1868491,7.37618819 C84.329629,5.88886201 86.3597326,4.23091182 88.2520494,2.41779037 C86.0970361,1.84539514 83.9040348,1.36603828 81.6746552,0.992597071 L81.6743332,0.992597071 C73.7741201,-0.33086569 65.6311702,-0.33086569 57.7299913,0.992597071 C39.1445306,4.10696797 22.9606832,14.2761584 12.1022363,28.7878905 C6.36476283,36.4559906 3.36113657,45.8090832 3.36113657,55.3846309 L3.36113657,87.2079384 C3.36113657,94.8444892 2.29843879,102.444018 0.203948706,109.787932 C-0.382933467,111.8454 0.323385506,114.046772 1.9803699,115.400818 C24.3797598,133.70652 52.3798021,141.593856 79.609139,139.073771 L79.609139,128.405264 C51.4297805,123.700871 29.947897,99.3557234 29.947897,69.8261818 Z" id="Path" fill="#CE857A"></path>
                        </g>
                        <g id="Group" transform="translate(42.051412, 123.076966)">
                            <g id="Path">
                                <path d="M56.5895421,12.0206218 C52.0155312,6.27670967 45.5253806,2.14857467 38.1064559,0.634850053 C36.0660504,0.218591879 33.9551418,0 31.7946556,0 L7.00041298,12.0206218 L12.6339024,36.9230336 L31.7949776,36.9230336 L50.9560528,36.9230336 L56.5895421,12.0206218 Z" fill="#FF8E9E"></path>
                                <path d="M31.7946556,0 C21.7793488,0 12.8325345,4.69698898 7.00041298,12.0206218 L0,36.9230336 L12.6339024,36.9230336 L12.6339024,32.0737707 C12.6339024,16.5927011 23.598265,3.59952253 38.1064559,0.634850053 C36.0657285,0.218269947 33.9554637,0 31.7946556,0 L31.7946556,0 Z" fill="#EA5B70"></path>
                            </g>
                            <g transform="translate(0.000000, 12.083720)" id="Path">
                                <path d="M6.95019157,0 C4.02865799,3.68708806 1.89521413,8.03510267 0.80965917,12.7836008 C0.280080906,15.1005459 0,17.512783 0,19.9897284 L0,24.8393131 L12.6335804,24.8393131 L12.6335804,13.8350309 C12.6339024,8.65353419 10.588346,3.6845126 6.95019157,0 Z" fill="#FFBF9D"></path>
                                <path d="M56.6397635,0 C53.0012872,3.68419067 50.9560528,8.65353419 50.9560528,13.8350309 L50.9560528,24.8393131 L63.5896332,24.8393131 L63.5896332,19.9900503 C63.5896332,17.5131049 63.3095523,15.1008679 62.779974,12.7839227 C61.694741,8.03510267 59.5612971,3.68708806 56.6397635,0 L56.6397635,0 Z" fill="#FFD4BD"></path>
                            </g>
                        </g>
                        <g id="Group" transform="translate(0.000000, 10.256193)">
                            <path d="M133.333642,45.1281164 L14.3591364,45.1281164 C6.42898354,45.1281164 2.28746498e-15,51.556778 2.28746498e-15,59.4872527 C2.28746498e-15,67.4177275 6.42866161,73.8463891 14.3591364,73.8463891 L133.333642,73.8463891 C141.263795,73.8463891 147.692778,67.4177275 147.692778,59.4872527 C147.692778,51.556778 141.263795,45.1281164 133.333642,45.1281164 Z" id="Path" fill="#FFBF9D"></path>
                            <g transform="translate(14.358814, 0.000000)" id="Path">
                                <path d="M69.3943904,0.825755773 L49.5810809,0.825755773 L0.000321932075,59.4872527 L49.5810809,118.14875 L69.3943904,118.14875 C97.5322196,113.431157 118.974827,88.9652852 118.974827,59.4872527 C118.974827,30.0092203 97.5322196,5.54334841 69.3943904,0.825755773 Z" fill="#FFD4BD"></path>
                                <path d="M19.7331485,59.5699893 C19.7331485,30.039482 41.2147101,5.52950533 69.3940685,0.825755773 C66.1718504,0.285553751 62.8630325,-1.14373249e-15 59.4872527,-1.14373249e-15 C56.111473,-1.14373249e-15 52.8029771,0.285553751 49.5807589,0.825755773 C21.4429297,5.54302647 0,30.0088984 0,59.4872527 C0,88.9656071 21.4429297,113.431479 49.5807589,118.14875 C52.8029771,118.688952 56.111473,118.974505 59.4872527,118.974505 C62.8630325,118.974505 66.1718504,118.688952 69.3940685,118.14875 C41.215032,113.444678 19.7331485,89.0995308 19.7331485,59.5699893 Z" fill="#FFBF9D"></path>
                            </g>
                        </g>
                        <g id="Group" transform="translate(29.538878, 79.846640)" fill="#FF8E9E">
                            <ellipse id="Oval" cx="11.8973218" cy="9.43582913" rx="11.8973218" ry="9.43582913"></ellipse>
                            <ellipse id="Oval" cx="76.7177013" cy="9.43582913" rx="11.8973218" ry="9.43582913"></ellipse>
                        </g>
                        <path d="M86.3312369,7.37618819 L61.4352637,7.37618819 L16.1040082,55.3843089 L26.2693354,105.455048 L26.2693354,103.01255 C26.2693354,94.2295989 29.3746922,85.8535702 34.8436743,79.309013 C37.451968,76.1878816 40.5949908,73.4813986 44.1999862,71.3492425 C59.0059643,62.5933339 72.1201893,51.2336387 82.9020165,37.8219484 C94.1815506,53.1475249 113.472686,59.8939334 131.58877,55.3843089 L134.93461,52.0384689 C128.457015,29.7108698 109.903747,12.0541832 86.3312369,7.37618819 Z" id="Path" fill="#D6948C"></path>
                        <path d="M26.2690135,105.455048 L26.2690135,103.01255 C26.2690135,94.2295989 29.3743703,85.8535702 34.8433524,79.309013 C34.3488647,76.2226502 34.0919629,73.0551605 34.0919629,69.8258599 C34.0919629,43.6946333 50.9129139,21.4945194 74.3109371,13.4706843 C78.5939214,12.0020302 82.6332032,9.94134297 86.3312369,7.37586626 C82.3038667,6.57650892 78.131627,6.15349017 73.8463891,6.15349017 C45.3219195,6.15349017 20.560192,25.1423317 12.7578462,52.0384689 L16.1036863,55.3843089 C14.9637248,59.9827867 14.3588144,64.7924519 14.3588144,69.7434453 C14.3588144,74.6947606 14.9637248,79.5037819 16.1036863,84.1025816 L16.1036863,105.453761 L26.2690135,105.455048 Z" id="Path" fill="#CE857A"></path>
                        <g id="Group" transform="translate(45.811900, 72.867474)" fill="#313D40">
                            <path d="M2.41449057,0 C1.08072598,0 0,1.08104791 0,2.41449057 L0,7.33747586 C0,8.67091852 1.08072598,9.75196643 2.41449057,9.75196643 C3.74825515,9.75196643 4.82898113,8.67091852 4.82898113,7.33747586 L4.82898113,2.41449057 C4.82898113,1.08104791 3.74825515,0 2.41449057,0 Z" id="Path"></path>
                            <path d="M53.6544874,0 C52.3207228,0 51.2399968,1.08104791 51.2399968,2.41449057 L51.2399968,7.33747586 C51.2399968,8.67091852 52.3207228,9.75196643 53.6544874,9.75196643 C54.988252,9.75196643 56.068978,8.67091852 56.068978,7.33747586 L56.068978,2.41449057 C56.068978,1.08104791 54.988252,0 53.6544874,0 Z" id="Path"></path>
                            <path d="M36.3754271,5.37079281 C35.3700333,4.49481564 33.845041,4.59944356 32.9687419,5.60483743 C31.7231867,7.03389391 29.9248741,7.85353298 28.034489,7.85353298 C26.1441038,7.85353298 24.3457913,7.03389391 23.1002361,5.60483743 C22.223615,4.59912163 20.6986228,4.49481564 19.6935508,5.37079281 C18.6884789,6.24709192 18.583529,7.77208416 19.4595062,8.77747803 C21.6225678,11.2592524 24.7478844,12.682836 28.034489,12.682836 C31.3210935,12.682836 34.4464101,11.2595743 36.6094717,8.77747803 C37.4854489,7.77208416 37.3804991,6.24709192 36.3754271,5.37079281 L36.3754271,5.37079281 Z" id="Path"></path>
                        </g>
                    </g>
                    <g id="son" transform="translate(115.000000, 0.000000)">
                        <g id="Group" transform="translate(45.429698, 124.146479)">
                            <path d="M45.3604829,1.97537223 C41.7777062,0.692474849 37.9216097,0 33.9486519,0 C29.9454326,0 26.1044668,0.696981891 22.5352113,1.9750503 L2.81368209,20.4288129 L14.1212072,35.8535211 L53.7725553,35.8535211 L65.0842656,20.4284909 C61.4123139,12.0080483 54.3430181,5.19114688 45.3604829,1.97537223 Z" id="Path" fill="#7CE3FF"></path>
                            <path d="M33.9486519,0 C29.9454326,0 26.1044668,0.696981891 22.5352113,1.9750503 C13.8900604,5.0710664 6.6282495,11.68 2.81368209,20.4288129 L14.1212072,35.8535211 L19.9088934,35.8535211 L19.9088934,33.9489738 C19.9253119,19.1974245 28.7275654,6.5039839 41.364668,0.819315895 C38.9672435,0.282655936 36.4819316,0 33.9486519,0 L33.9486519,0 Z" id="Path" fill="#55DAFE"></path>
                            <g transform="translate(0.000000, 1.975050)" fill="#FFBF9D" id="Path">
                                <path d="M22.5352113,0 C24.5392354,5.25617706 28.5482495,9.41939638 33.9489738,12.3071227 C39.3493763,9.41939638 43.3561368,5.25617706 45.3604829,0.00032193159 L22.5352113,0 Z"></path>
                                <path d="M14.1212072,26.6498189 C13.6170624,26.3497787 13.1148491,26.0426559 12.6155332,25.7297384 C9.12,23.5380282 5.76096579,21.044668 2.81368209,18.4537626 C1.00635815,22.5989537 0,27.1703823 0,31.9739235 L0,33.8784708 L14.1208853,33.8784708 L14.1208853,31.9739235 L14.1208853,26.6498189 L14.1212072,26.6498189 Z"></path>
                            </g>
                        </g>
                        <g id="Group" transform="translate(0.000000, 47.768209)" fill="#FFBF9D">
                            <circle id="Oval" cx="15.8055533" cy="15.8055533" r="15.8055533"></circle>
                            <circle id="Oval" cx="142.951791" cy="15.8055533" r="15.8055533"></circle>
                        </g>
                        <path d="M79.3780282,0 L15.8055533,63.5737626 L44.2974648,102.526519 C55.1449497,117.35662 72.4162575,126.121851 90.7901811,126.121851 C92.9674044,125.726519 95.1063179,125.220765 97.2004829,124.61006 C123.635573,116.904306 142.951791,92.4960966 142.951791,63.5734406 L79.3780282,0 Z" id="Path" fill="#FFD4BD"></path>
                        <path d="M36.8795171,63.5737626 L15.8055533,63.5737626 C15.8055533,92.4960966 35.1220926,116.904306 61.5565392,124.61006 C67.2115895,126.258672 73.1908249,127.146237 79.3783501,127.146237 C83.2177062,127.146237 87.0268008,126.80499 90.7901811,126.121851 C60.6956942,121.101006 36.8795171,95.0934406 36.8795171,63.5737626 Z" id="Path" fill="#FFBF9D"></path>
                        <g id="Group" transform="translate(34.837505, 71.906318)" fill="#FF8E9E">
                            <ellipse id="Oval" cx="11.2676056" cy="8.85311871" rx="11.2676056" ry="8.85311871"></ellipse>
                            <ellipse id="Oval" cx="77.7113883" cy="8.85311871" rx="11.2676056" ry="8.85311871"></ellipse>
                        </g>
                        <g id="Group" transform="translate(15.805553, 0.000000)">
                            <path d="M116.728531,28.6882897 L100.474205,36.9017304 L95.4556137,51.5158149 C104.052153,59.04 115.310744,63.5676459 127.146237,63.5695775 C127.145272,50.6887726 123.313964,38.7016499 116.728531,28.6882897 L116.728531,28.6882897 Z" id="Path" fill="#E8B5B1"></path>
                            <path d="M115.089899,6.07645875 C110.998471,8.7510664 106.663018,11.0757344 102.122817,13.0176258 C99.3886519,10.9298994 96.48,9.05851107 93.4226157,7.42953722 L17.5047082,19.7640241 L30.7225755,60.673159 C31.2811268,62.4016097 32.8907847,63.5724748 34.7071227,63.5715097 L57.6927163,63.5602414 C89.2123944,62.9656338 115.421811,41.3653119 123.690624,12.3795573 C125.139316,7.30140845 119.509698,3.18712274 115.089899,6.07645875 Z" id="Path" fill="#D6948C"></path>
                            <path d="M74.1096177,0.869215292 C70.682334,0.297464789 67.162334,0 63.5724748,0 C45.4435412,0 29.0861972,7.58953722 17.5047082,19.7640241 C6.65754527,31.166841 -2.22044605e-15,46.5921932 -2.22044605e-15,63.5727968 L34.7071227,63.5711871 C31.9449497,59.4060362 31.3004427,54.2486922 32.5981489,49.4219718 C35.8419316,37.3569416 43.1504225,26.9125151 53.1196781,19.7556539 C59.6410463,15.0741247 67.2978672,11.7971831 75.698994,10.395493 L93.4226157,7.42953722 C87.4826559,4.26366197 80.9851107,2.01593561 74.1096177,0.869215292 L74.1096177,0.869215292 Z" id="Path" fill="#CE857A"></path>
                        </g>
                        <g id="Group" transform="translate(54.428974, 69.370141)" fill="#313D40">
                            <path d="M2.41448692,0 C1.08104628,0 0,1.08104628 0,2.41448692 L0,6.74478873 C0,8.07822938 1.08104628,9.15927565 2.41448692,9.15927565 C3.74792757,9.15927565 4.82897384,8.07822938 4.82897384,6.74478873 L4.82897384,2.41448692 C4.82897384,1.08104628 3.74792757,0 2.41448692,0 Z" id="Path"></path>
                            <path d="M47.4849095,0 C46.1514688,0 45.0704225,1.08104628 45.0704225,2.41448692 L45.0704225,6.74478873 C45.0704225,8.07822938 46.1514688,9.15927565 47.4849095,9.15927565 C48.8183501,9.15927565 49.8993964,8.07822938 49.8993964,6.74478873 L49.8993964,2.41448692 C49.8993964,1.08104628 48.8183501,0 47.4849095,0 Z" id="Path"></path>
                            <path d="M32.4774245,4.79549296 C31.4720322,3.9195171 29.9470423,4.02414487 29.0707445,5.02953722 C28.0302616,6.22325956 26.5284507,6.90800805 24.9496982,6.90800805 C23.3709457,6.90800805 21.8691348,6.22325956 20.8286519,5.02953722 C19.9523541,4.02414487 18.4276861,3.91983903 17.4219718,4.79549296 C16.4165795,5.67179074 16.3119517,7.19678068 17.1879276,8.20217304 C19.1459155,10.4486117 21.9747284,11.7369819 24.9493763,11.7369819 C27.9240241,11.7369819 30.753159,10.4486117 32.7108249,8.20217304 C33.5874447,7.19678068 33.482495,5.67179074 32.4774245,4.79549296 Z" id="Path"></path>
                        </g>
                        <path d="M110.513642,144.57497 C107.144306,147.537062 103.236378,150.371992 99.2019316,152.773602 L99.2019316,160 L113.327324,160 L113.327324,158.095453 C113.327646,153.291911 112.321288,148.720161 110.513642,144.57497 Z" id="Path" fill="#FFD4BD"></path>
                    </g>
                </g>
            </g>
        </g>
    </g>
</svg>