<?xml version="1.0" encoding="UTF-8"?>
<svg width="116px" height="120px" viewBox="0 0 116 120" version="1.1" xmlns="http://www.w3.org/2000/svg" xmlns:xlink="http://www.w3.org/1999/xlink">
    <title>img_renewal_open</title>
    <defs>
        <path d="M112.380952,50.6834026 C112.378536,50.7732248 112.367809,51.244766 112.349281,52.0975904 C112.330399,52.5732563 112.340753,53.1711842 112.287764,53.8828583 C112.234774,54.5945324 112.173258,55.4242106 112.103214,56.3731093 L112.042324,56.9591992 C111.362973,63.1994347 109.731294,69.0708239 107.425522,74.154621 C105.060485,79.4155348 102.107692,83.8127075 99.246869,87.5736313 C97.8234618,89.4835942 96.3732553,91.1672813 95.0064921,92.8126475 C93.6147567,94.3904958 92.2888015,95.9354977 91.0121812,97.3174836 C88.4778221,100.077198 86.197447,102.561366 84.171056,104.76938 C82.152583,106.953672 80.4575285,108.86911 78.990268,110.516301 C77.5668608,112.180523 76.3438391,113.546694 75.427791,114.673816 C73.5816861,116.921368 72.6589381,118.044839 72.6589381,118.044839 L72.6546746,118.050314 C72.6400568,118.06917 72.6242209,118.087418 72.608994,118.106883 C71.9828654,118.870868 71.1319883,119.46393 70.1160519,119.773538 C67.3813072,120.606866 64.4882032,119.068555 63.6537711,116.338038 C63.0788047,114.457272 62.5056656,112.581372 61.9325264,110.70608 C61.9361809,110.705472 61.9398353,110.704864 61.9434898,110.703647 C61.6505249,110.757783 61.356951,110.811311 61.0639861,110.864839 C60.4110582,110.977368 59.7569122,111.080166 59.101548,111.173231 C56.4770458,111.539408 53.8239171,111.726147 51.1689611,111.726755 L51.1555615,111.726755 C44.5428392,111.708507 37.8631188,110.540631 31.6268045,108.091743 C25.3904903,105.657452 19.6231635,101.943973 14.8522826,97.2122532 C10.0704384,92.49209 6.2868674,86.7780162 3.78174382,80.5706366 C1.26382967,74.3638653 0.030453727,67.6862943 0,61.0616426 L0.0669981994,58.2052139 C0.137041771,57.2581399 0.207085343,56.3098494 0.277128916,55.3621672 C0.27773799,55.3579093 0.27773799,55.3536514 0.278347065,55.3487853 C1.02202708,47.8500518 3.25854879,40.5325823 6.71139235,33.8927239 C10.1611905,27.2467828 14.8066021,21.2626378 20.321772,16.2401652 C25.8363329,11.216476 32.2340519,7.1453353 39.1902922,4.33695986 C46.1380055,1.52493481 53.6582488,-0.00242727592 61.2144275,2.89548336e-06 L61.2272181,2.89548336e-06 C67.8405494,0.0182538514 74.5190518,1.18612928 80.7565841,3.63562633 C86.9922893,6.07052494 92.7602252,9.78339557 97.530497,14.5163324 C102.311732,19.2364956 106.095303,24.9505694 108.600427,31.1585572 C111.117732,37.3653285 112.350499,44.0428996 112.380952,50.6675513 L112.380952,50.6109823 M61.226609,10.3405686 L61.2156457,10.3405686 C55.0335391,10.3393529 48.8483872,11.5863033 43.0731424,13.9226624 C37.2942431,16.2541554 31.9264692,19.6635 27.2981118,23.8812335 C22.6679271,28.0971421 18.7735045,33.1220478 15.9035453,38.6530328 C13.0293226,44.1809765 11.1929628,50.2162161 10.5820611,56.370068 L10.5808429,56.3810168 C10.5235899,57.1571674 10.4663369,57.9327096 10.4090839,58.7082519 C10.3908116,59.4844025 10.3731485,60.2599447 10.3542672,61.0360953 C10.3835028,66.4198794 11.3805578,71.7604764 13.3801495,76.692317 C15.3706051,81.6235493 18.3593338,86.1326433 22.1337688,89.8601124 C25.8996766,93.5973138 30.4518998,96.5309925 35.4164663,98.4689358 C40.381642,100.416611 45.7451524,101.366118 51.1561706,101.386191 L51.1671339,101.386191 C55.5104445,101.386191 59.8592367,100.773057 64.0655055,99.5924076 C64.086214,99.5869332 64.1008318,99.5832836 64.1160586,99.5790257 C66.8203496,98.8466705 69.6074747,100.403838 70.4224164,103.059538 L70.4242436,103.066229 L70.7708071,104.201866 L71.448707,103.417808 C72.0355068,102.762442 72.6648176,102.060153 73.3358721,101.311323 L73.6748745,100.933031 C74.5598598,99.9379041 75.5136705,98.8947237 76.5326522,97.7882834 C78.5474708,95.5936508 80.8138371,93.1246892 83.3323604,90.3820067 C84.5907084,89.0194854 85.8173845,87.5857967 87.1445579,86.0839818 C88.4004696,84.5675686 89.7568786,82.9964112 91.010354,81.3084662 C93.567858,77.9471748 96.0492277,74.2154478 97.9751214,69.9295883 C99.9101512,65.6498115 101.251333,60.7897466 101.7995,55.3530431 L101.820428,55.0663194 C101.868526,54.4079365 101.911494,53.8240083 101.949333,53.3141273 C101.995622,52.7314061 101.980396,52.2460079 101.998059,51.8579326 C102.01694,51.0811738 102.026685,50.6930985 102.026685,50.6930985 C101.99745,45.3087062 101.001004,39.9681092 99.001412,35.0362686 C97.0109564,30.104428 94.0222276,25.595334 90.2484018,21.8672566 C86.4824939,18.1306635 81.9302708,15.1963765 76.9657042,13.2590415" id="path-1"></path>
        <polygon id="path-3" points="0 0 106.666667 0 106.666667 115.238095 0 115.238095"></polygon>
    </defs>
    <g id="스강_시즌2---이벤트" stroke="none" stroke-width="1" fill="none" fill-rule="evenodd">
        <g id="event_sv_s2_alt" transform="translate(-710.000000, -658.000000)">
            <g id="img_renewal_open" transform="translate(710.000000, 658.000000)">
                <g id="Group-3" transform="translate(2.857143, 0.000000)">
                    <mask id="mask-2" fill="white">
                        <use xlink:href="#path-1"></use>
                    </mask>
                    <g id="Clip-2"></g>
                    <path d="M101.7995,55.3530431 C102.013895,55.3743325 102.121092,55.3852814 102.121092,55.3852814 C102.228898,55.3962302 102.335486,55.4065708 102.442683,55.4169113 C102.550489,55.4278602 102.657686,55.4382007 102.764884,55.4485413 C102.872081,55.4594901 102.979887,55.470439 103.087084,55.4807795 C103.194281,55.4917284 103.301478,55.5020689 103.408675,55.5124095 C103.516482,55.5233583 103.623679,55.5343071 103.730876,55.5446477 C103.945879,55.5659371 104.160273,55.5872265 104.375277,55.6085159 C104.482474,55.6188565 104.589671,55.6298053 104.696868,55.6401459 C104.804065,55.6504864 104.911871,55.6614353 105.019068,55.6723841 C105.233463,55.6930652 105.448466,55.7143546 105.66286,55.735644 C106.092258,55.7782228 106.521655,55.8208016 106.951053,55.8633804 L108.239246,55.9911168 C108.45364,56.0117979 108.668034,56.0330873 108.882428,56.0549849 C108.990234,56.0653255 109.097432,56.0756661 109.205238,56.0866149 C109.311826,56.0969555 109.419632,56.1079043 109.526829,56.1182449 C109.741832,56.1395343 109.956227,56.1608236 110.17123,56.182113 C110.277818,56.1930619 110.385624,56.2034024 110.492821,56.213743 C110.600628,56.2246918 110.707216,56.2350324 110.814413,56.2459812 C110.922219,56.2563218 111.029416,56.2672706 111.137222,56.2776112 C111.24381,56.28856 111.351616,56.2989006 111.458814,56.3098494 C111.56662,56.32019 111.673208,56.3311388 111.780405,56.3414794 C111.780405,56.3414794 111.888211,56.3518199 112.103214,56.3731093 C112.173258,55.4242106 112.234774,54.5945324 112.287764,53.8828583 C112.340753,53.1711842 112.330399,52.5732563 112.349281,52.0975904 C112.369989,51.1444337 112.380952,50.6675513 112.380952,50.6675513 C112.350499,44.0428996 111.117732,37.3653285 108.600427,31.1585572 C106.095303,24.9505694 102.311732,19.2364956 97.530497,14.5163324 C92.7602252,9.78339557 86.9922893,6.07052494 80.7565841,3.63562633 C74.5190518,1.18612928 67.8405494,0.0182538514 61.2272181,2.89548336e-06 L61.2144275,2.89548336e-06 C53.6582488,-0.00242727592 46.1380055,1.52493481 39.1902922,4.33695986 C32.2340519,7.1453353 25.8363329,11.216476 20.321772,16.2401652 C14.8066021,21.2626378 10.1611905,27.2467828 6.71139235,33.8927239 C3.25854879,40.5325823 1.02202708,47.8500518 0.278347065,55.3487853 C0.27773799,55.3536514 0.27773799,55.3579093 0.277128916,55.3621672 C0.207085343,56.3098494 0.137041771,57.2581399 0.0669981994,58.2052139 C0.0450715159,59.1577623 0.022535758,60.1090942 0,61.0616426 C0.030453727,67.6862943 1.26382967,74.3638653 3.78174382,80.5706366 C6.2868674,86.7780162 10.0704384,92.49209 14.8522826,97.2122532 C19.6231635,101.943973 25.3904903,105.657452 31.6268045,108.091743 C37.8631188,110.540631 44.5428392,111.708507 51.1555615,111.726755 L51.1689611,111.726755 C53.8239171,111.726147 56.4770458,111.539408 59.101548,111.173231 C59.7569122,111.080166 60.4110582,110.977368 61.0639861,110.864839 C61.356951,110.811311 61.6505249,110.757783 61.9434898,110.703647 C61.9398353,110.704864 61.9361809,110.705472 61.9325264,110.70608 C62.5056656,112.581372 63.0788047,114.457272 63.6519438,116.333172 L63.6537711,116.338038 C64.4882032,119.068555 67.3813072,120.606866 70.1160519,119.773538 C71.1319883,119.46393 71.9828654,118.870868 72.608994,118.106883 C72.6242209,118.087418 72.6400568,118.06917 72.6546746,118.050314 L72.6589381,118.044839 C72.6589381,118.044839 73.5816861,116.921368 75.427791,114.673816 C76.3438391,113.546694 77.5668608,112.180523 78.990268,110.516301 C80.4575285,108.86911 82.152583,106.953672 84.171056,104.76938 C86.197447,102.561366 88.4778221,100.077198 91.0121812,97.3174836 C92.2888015,95.9354977 93.6147567,94.3904958 95.0064921,92.8126475 C96.3732553,91.1672813 97.8234618,89.4835942 99.246869,87.5736313 C102.107692,83.8127075 105.060485,79.4155348 107.425522,74.154621 C109.803349,68.9119552 111.464295,62.8317038 112.103214,56.3731093 C111.888211,56.3518199 111.780405,56.3414794 111.780405,56.3414794 C111.673208,56.3311388 111.56662,56.32019 111.458814,56.3098494 C111.351616,56.2989006 111.24381,56.28856 111.137222,56.2776112 C111.029416,56.2672706 110.922219,56.2563218 110.814413,56.2459812 C110.707216,56.2350324 110.600628,56.2246918 110.492821,56.213743 C110.385624,56.2034024 110.277818,56.1930619 110.17123,56.182113 C109.956227,56.1608236 109.741832,56.1395343 109.526829,56.1182449 C109.419632,56.1079043 109.311826,56.0969555 109.205238,56.0866149 C109.097432,56.0756661 108.990234,56.0653255 108.882428,56.0549849 C108.668034,56.0330873 108.45364,56.0117979 108.239246,55.9911168 L106.951053,55.8633804 C106.521655,55.8208016 106.092258,55.7782228 105.66286,55.735644 C105.448466,55.7143546 105.233463,55.6930652 105.019068,55.6723841 C104.911871,55.6614353 104.804065,55.6504864 104.696868,55.6401459 C104.589671,55.6298053 104.482474,55.6188565 104.375277,55.6085159 C104.160273,55.5872265 103.945879,55.5659371 103.730876,55.5446477 C103.623679,55.5343071 103.516482,55.5233583 103.408675,55.5124095 C103.301478,55.5020689 103.194281,55.4917284 103.087084,55.4807795 C102.979887,55.470439 102.872081,55.4594901 102.764884,55.4485413 C102.657686,55.4382007 102.550489,55.4278602 102.442683,55.4169113 C102.335486,55.4065708 102.228898,55.3962302 102.121092,55.3852814 C102.121092,55.3852814 102.013895,55.3743325 101.7995,55.3530431 C101.251333,60.7897466 99.9101512,65.6498115 97.9751214,69.9295883 C96.0492277,74.2154478 93.567858,77.9471748 91.010354,81.3084662 C89.7568786,82.9964112 88.4004696,84.5675686 87.1445579,86.0839818 C85.8173845,87.5857967 84.5907084,89.0194854 83.3323604,90.3820067 C80.8138371,93.1246892 78.5474708,95.5936508 76.5326522,97.7882834 C75.5136705,98.8947237 74.5598598,99.9379041 73.6748745,100.933031 C72.8757687,101.824753 72.1333068,102.653214 71.448707,103.417808 L70.7708071,104.201866 L70.7720252,104.204907 C71.0948347,105.262686 71.4182533,106.319857 71.7410628,107.376419 C71.3019201,105.940297 70.8633864,104.502959 70.4242436,103.066229 L70.4224164,103.059538 C69.6074747,100.403838 66.8203496,98.8466705 64.1160586,99.5790257 C64.1008318,99.5832836 64.086214,99.5869332 64.070378,99.5911911 L64.0655055,99.5924076 C59.8592367,100.773057 55.5104445,101.386191 51.1671339,101.386191 L51.1561706,101.386191 C45.7451524,101.366118 40.381642,100.416611 35.4164663,98.4689358 C30.4518998,96.5309925 25.8996766,93.5973138 22.1337688,89.8601124 C18.3593338,86.1326433 15.3706051,81.6235493 13.3801495,76.692317 C11.3805578,71.7604764 10.3835028,66.4198794 10.3542672,61.0360953 C10.3731485,60.2599447 10.3908116,59.4844025 10.4090839,58.7082519 C10.4663369,57.9327096 10.5235899,57.1571674 10.5808429,56.3810168 C10.581452,56.3767589 10.581452,56.3731093 10.5820611,56.370068 C11.1929628,50.2162161 13.0293226,44.1809765 15.9035453,38.6530328 C18.7735045,33.1220478 22.6679271,28.0971421 27.2981118,23.8812335 C31.9264692,19.6635 37.2942431,16.2541554 43.0731424,13.9226624 C48.8483872,11.5863033 55.0335391,10.3393529 61.2156457,10.3405695 L61.226609,10.3405695 C66.6376272,10.3606423 72.0011376,11.3107577 76.9657042,13.2590415 C81.9302708,15.1963765 86.4824939,18.1306635 90.2484018,21.8672566 C94.0222276,25.595334 97.0109564,30.104428 99.001412,35.0362686 C101.001004,39.9681092 101.99745,45.3087062 102.026685,50.6930985 C102.026685,50.6930985 102.01694,51.0811738 101.998059,51.8579326 C101.980396,52.2460079 101.995622,52.7314061 101.949333,53.3141273 C101.906088,53.8968485 101.856144,54.5762843 101.7995,55.3530431" id="Fill-1" mask="url(#mask-2)"></path>
                </g>
                <path d="M110.21449,53.3085211 C113.094091,24.1303683 91.8800608,0.476190476 62.8325708,0.476190476 C33.7850807,0.476190476 7.90260665,24.1303683 5.02361166,53.3085211 C2.14401068,82.4866739 23.3574348,106.140852 52.4055308,106.140852 C57.4805851,106.140852 62.4586832,105.416496 67.2343851,104.068829 L70.4824198,114.761905 C89.4270674,90.872159 107.590611,79.898471 110.21449,53.3085211" id="Fill-4" fill="#FFFFFF"></path>
                <g id="Group-8" transform="translate(0.000000, 0.952381)">
                    <mask id="mask-4" fill="white">
                        <use xlink:href="#path-3"></use>
                    </mask>
                    <g id="Clip-7"></g>
                    <path d="M63.1837891,103.529047 L66.3608151,113.954879 C71.3822914,107.681239 76.2566494,102.391319 80.9747701,97.2706264 C93.7752791,83.3780403 103.885712,72.4055634 105.795818,53.1098314 C107.189186,39.0346243 103.012121,25.817127 94.034256,15.8922858 C85.1190079,6.03684064 72.5221544,0.608736577 58.5635446,0.608736577 C29.6213603,0.608736577 3.74008793,24.1875392 0.871280847,53.1694876 C-0.52208763,67.2446947 3.65497817,80.4621921 12.6328428,90.3870332 C21.547483,100.242478 34.1443365,105.670582 48.1029463,105.670582 C53.0587664,105.670582 58.036472,104.976623 62.8974555,103.6094 L63.1837891,103.529047 Z M66.1164285,115.238095 L62.7758702,104.275358 C57.9519701,105.605448 53.0168195,106.279319 48.1029463,106.279319 C33.9704694,106.279319 21.2137311,100.779993 12.181761,90.7961042 C3.08778236,80.7416021 -1.14460479,67.3579198 0.265785645,53.1098314 C3.16498908,23.8247322 29.3173968,0 58.5635446,0 C72.6960215,0 85.4527597,5.4987175 94.4847298,15.4838236 C103.579316,25.5377169 107.811096,38.9213993 106.400705,53.1694876 L106.097958,53.1396595 L106.400705,53.1694876 C104.469929,72.6685377 94.2993121,83.7073667 81.4215964,97.6833498 C76.5983043,102.918484 71.6108719,108.33137 66.4763213,114.785804 L66.1164285,115.238095 Z" id="Fill-6" fill="#001B45" mask="url(#mask-4)"></path>
                </g>
                <g id="Renewal" transform="translate(53.053142, 34.808162) rotate(-11.000000) translate(-53.053142, -34.808162) translate(3.433142, 23.303162)" fill="#001B45" fill-rule="nonzero">
                    <path d="M12.9,23.01 C11.34,23.01 10.56,22.34 10.56,21 C10.56,20.56 10.625,20.055 10.755,19.485 C10.885,18.915 11.07,18.18 11.31,17.28 C11.59,16.34 11.8,15.54 11.94,14.88 C12.08,14.22 12.15,13.63 12.15,13.11 C12.15,11.75 11.55,11.07 10.35,11.07 C10.03,11.07 9.7,11.11 9.36,11.19 L6.96,22.5 L2.64,22.5 L6.72,3.42 L11.16,2.82 L9.69,9.75 L9.93,9.75 C10.71,9.75 11.43,9.48 12.09,8.94 C12.75,8.4 13.265,7.725 13.635,6.915 C14.005,6.105 14.19,5.31 14.19,4.53 C14.19,3.61 13.915,2.855 13.365,2.265 C12.815,1.675 11.99,1.38 10.89,1.38 C9.27,1.38 7.85,1.67 6.63,2.25 C5.41,2.83 4.465,3.67 3.795,4.77 C3.125,5.87 2.79,7.17 2.79,8.67 C2.79,9.41 2.86,9.925 3,10.215 C3.14,10.505 3.21,10.67 3.21,10.71 C2.13,10.71 1.325,10.485 0.795,10.035 C0.265,9.585 -8.47741758e-13,8.84 -8.47741758e-13,7.8 C-8.47741758e-13,6.52 0.525,5.275 1.575,4.065 C2.625,2.855 3.97,1.875 5.61,1.125 C7.25,0.375 8.89,1.06210495e-14 10.53,1.06210495e-14 C12.03,1.06210495e-14 13.29,0.22 14.31,0.66 C15.33,1.1 16.09,1.685 16.59,2.415 C17.09,3.145 17.34,3.94 17.34,4.8 C17.34,5.74 17.05,6.68 16.47,7.62 C15.89,8.56 15.1,9.33 14.1,9.93 C14.86,10.15 15.395,10.515 15.705,11.025 C16.015,11.535 16.17,12.17 16.17,12.93 C16.17,13.51 16.1,14.125 15.96,14.775 C15.82,15.425 15.62,16.23 15.36,17.19 C15.2,17.81 15.05,18.42 14.91,19.02 C14.77,19.62 14.7,20.12 14.7,20.52 C14.7,20.98 14.805,21.39 15.015,21.75 C15.225,22.11 15.51,22.36 15.87,22.5 C14.65,22.84 13.66,23.01 12.9,23.01 Z" id="Path"></path>
                    <path d="M22.14,22.68 C20.66,22.68 19.51,22.295 18.69,21.525 C17.87,20.755 17.46,19.55 17.46,17.91 C17.46,16.53 17.73,15.01 18.27,13.35 C18.81,11.69 19.69,10.255 20.91,9.045 C22.13,7.835 23.68,7.23 25.56,7.23 C27.76,7.23 28.86,8.19 28.86,10.11 C28.86,11.23 28.54,12.26 27.9,13.2 C27.26,14.14 26.41,14.895 25.35,15.465 C24.29,16.035 23.16,16.36 21.96,16.44 C21.92,17.04 21.9,17.44 21.9,17.64 C21.9,18.62 22.07,19.285 22.41,19.635 C22.75,19.985 23.3,20.16 24.06,20.16 C25.14,20.16 26.065,19.91 26.835,19.41 C27.605,18.91 28.45,18.15 29.37,17.13 L30.39,17.13 C28.17,20.83 25.42,22.68 22.14,22.68 Z M22.2,15 C22.94,14.96 23.645,14.7 24.315,14.22 C24.985,13.74 25.525,13.13 25.935,12.39 C26.345,11.65 26.55,10.87 26.55,10.05 C26.55,9.23 26.3,8.82 25.8,8.82 C25.08,8.82 24.375,9.45 23.685,10.71 C22.995,11.97 22.5,13.4 22.2,15 Z" id="Shape"></path>
                    <path d="M40.2,22.68 C38.98,22.68 38.085,22.355 37.515,21.705 C36.945,21.055 36.66,20.25 36.66,19.29 C36.66,18.87 36.71,18.395 36.81,17.865 C36.91,17.335 37.015,16.82 37.125,16.32 C37.235,15.82 37.31,15.5 37.35,15.36 C37.51,14.66 37.66,13.97 37.8,13.29 C37.94,12.61 38.01,12.06 38.01,11.64 C38.01,10.62 37.65,10.11 36.93,10.11 C36.41,10.11 35.95,10.365 35.55,10.875 C35.15,11.385 34.83,12.05 34.59,12.87 L32.55,22.5 L28.23,22.5 L31.41,7.5 L35.73,7.5 L35.4,9.06 C36.4,7.94 37.57,7.38 38.91,7.38 C39.93,7.38 40.74,7.66 41.34,8.22 C41.94,8.78 42.24,9.63 42.24,10.77 C42.24,11.35 42.17,11.995 42.03,12.705 C41.89,13.415 41.69,14.28 41.43,15.3 C41.27,15.92 41.125,16.525 40.995,17.115 C40.865,17.705 40.8,18.17 40.8,18.51 C40.8,18.91 40.89,19.22 41.07,19.44 C41.25,19.66 41.56,19.77 42,19.77 C42.6,19.77 43.08,19.555 43.44,19.125 C43.8,18.695 44.16,18.03 44.52,17.13 L45.78,17.13 C45.04,19.33 44.185,20.805 43.215,21.555 C42.245,22.305 41.24,22.68 40.2,22.68 Z" id="Path"></path>
                    <path d="M48.81,22.68 C47.33,22.68 46.18,22.295 45.36,21.525 C44.54,20.755 44.13,19.55 44.13,17.91 C44.13,16.53 44.4,15.01 44.94,13.35 C45.48,11.69 46.36,10.255 47.58,9.045 C48.8,7.835 50.35,7.23 52.23,7.23 C54.43,7.23 55.53,8.19 55.53,10.11 C55.53,11.23 55.21,12.26 54.57,13.2 C53.93,14.14 53.08,14.895 52.02,15.465 C50.96,16.035 49.83,16.36 48.63,16.44 C48.59,17.04 48.57,17.44 48.57,17.64 C48.57,18.62 48.74,19.285 49.08,19.635 C49.42,19.985 49.97,20.16 50.73,20.16 C51.81,20.16 52.735,19.91 53.505,19.41 C54.275,18.91 55.12,18.15 56.04,17.13 L57.06,17.13 C54.84,20.83 52.09,22.68 48.81,22.68 Z M48.87,15 C49.61,14.96 50.315,14.7 50.985,14.22 C51.655,13.74 52.195,13.13 52.605,12.39 C53.015,11.65 53.22,10.87 53.22,10.05 C53.22,9.23 52.97,8.82 52.47,8.82 C51.75,8.82 51.045,9.45 50.355,10.71 C49.665,11.97 49.17,13.4 48.87,15 Z" id="Shape"></path>
                    <path d="M59.01,22.68 C58.05,22.68 57.275,22.38 56.685,21.78 C56.095,21.18 55.8,20.28 55.8,19.08 C55.8,18.58 55.88,17.93 56.04,17.13 L58.08,7.5 L62.4,7.5 L60.24,17.7 C60.18,17.94 60.15,18.19 60.15,18.45 C60.15,19.33 60.45,19.77 61.05,19.77 C61.61,19.77 62.09,19.535 62.49,19.065 C62.89,18.595 63.21,17.95 63.45,17.13 L65.49,7.5 L69.81,7.5 L67.65,17.7 C67.55,18.2 67.5,18.56 67.5,18.78 C67.5,19.44 67.84,19.77 68.52,19.77 C69.44,19.77 70.295,19.19 71.085,18.03 C71.875,16.87 72.51,15.49 72.99,13.89 C73.47,12.29 73.71,10.91 73.71,9.75 C73.67,9.85 73.54,9.925 73.32,9.975 C73.1,10.025 72.91,10.05 72.75,10.05 C72.41,10.05 72.145,9.89 71.955,9.57 C71.765,9.25 71.67,8.9 71.67,8.52 C71.67,8.04 71.825,7.65 72.135,7.35 C72.445,7.05 72.91,6.9 73.53,6.9 C74.19,6.9 74.67,7.145 74.97,7.635 C75.27,8.125 75.42,8.75 75.42,9.51 C75.42,11.31 75.11,13.235 74.49,15.285 C73.87,17.335 72.92,19.08 71.64,20.52 C70.36,21.96 68.77,22.68 66.87,22.68 C65.89,22.68 65.09,22.47 64.47,22.05 C63.85,21.63 63.45,21 63.27,20.16 C62.15,21.84 60.73,22.68 59.01,22.68 Z" id="Path"></path>
                    <path d="M79.47,22.68 C78.33,22.68 77.38,22.29 76.62,21.51 C75.86,20.73 75.48,19.51 75.48,17.85 C75.48,16.37 75.775,14.815 76.365,13.185 C76.955,11.555 77.835,10.175 79.005,9.045 C80.175,7.915 81.57,7.35 83.19,7.35 C84.01,7.35 84.62,7.49 85.02,7.77 C85.42,8.05 85.62,8.42 85.62,8.88 L85.62,9.09 L85.95,7.5 L90.27,7.5 L88.11,17.7 C88.03,18 87.99,18.32 87.99,18.66 C87.99,19.52 88.4,19.95 89.22,19.95 C89.78,19.95 90.265,19.69 90.675,19.17 C91.085,18.65 91.41,17.97 91.65,17.13 L92.91,17.13 C92.17,19.29 91.255,20.755 90.165,21.525 C89.075,22.295 87.98,22.68 86.88,22.68 C86.04,22.68 85.365,22.445 84.855,21.975 C84.345,21.505 84.04,20.82 83.94,19.92 C83.36,20.74 82.715,21.405 82.005,21.915 C81.295,22.425 80.45,22.68 79.47,22.68 Z M81.42,19.77 C81.92,19.77 82.415,19.535 82.905,19.065 C83.395,18.595 83.73,17.95 83.91,17.13 L85.35,10.35 C85.35,10.09 85.25,9.835 85.05,9.585 C84.85,9.335 84.54,9.21 84.12,9.21 C83.32,9.21 82.6,9.675 81.96,10.605 C81.32,11.535 80.82,12.655 80.46,13.965 C80.1,15.275 79.92,16.43 79.92,17.43 C79.92,18.43 80.065,19.07 80.355,19.35 C80.645,19.63 81,19.77 81.42,19.77 Z" id="Shape"></path>
                    <path d="M94.56,22.68 C93.6,22.68 92.825,22.375 92.235,21.765 C91.645,21.155 91.35,20.24 91.35,19.02 C91.35,18.52 91.43,17.87 91.59,17.07 L94.8,2.04 L99.24,1.44 L95.79,17.64 C95.71,17.94 95.67,18.23 95.67,18.51 C95.67,19.31 96.08,19.71 96.9,19.71 C97.26,19.71 97.58,19.65 97.86,19.53 C97.78,20.53 97.425,21.305 96.795,21.855 C96.165,22.405 95.42,22.68 94.56,22.68 Z" id="Path"></path>
                </g>
                <g id="OPEN" transform="translate(58.091016, 68.619569) rotate(-10.000000) translate(-58.091016, -68.619569) translate(17.947956, 53.809674)" fill="#174C88" fill-rule="nonzero">
                    <path d="M10.8385263,29.6197895 C3.61284211,29.6197895 -7.70875813e-13,24.6831579 -7.70875813e-13,14.8098947 C-7.70875813e-13,4.93663158 3.61284211,1.23486322e-13 10.8385263,1.23486322e-13 C14.3686316,1.23486322e-13 17.0506842,1.19968421 18.8846842,3.59905263 C20.7186842,5.99842105 21.6356842,9.73536842 21.6356842,14.8098947 C21.6356842,19.8844211 20.7186842,23.6213684 18.8846842,26.0207368 C17.0506842,28.4201053 14.3686316,29.6197895 10.8385263,29.6197895 Z M10.8798947,24.2005263 C11.8727368,24.2005263 12.6725263,23.9247368 13.2792632,23.3731579 C13.886,22.8215789 14.3410526,21.8632105 14.6444211,20.4980526 C14.9477895,19.1328947 15.0994737,17.2368421 15.0994737,14.8098947 C15.0994737,12.4105263 14.9477895,10.5282632 14.6444211,9.16310526 C14.3410526,7.79794737 13.886,6.83957895 13.2792632,6.288 C12.6725263,5.73642105 11.8727368,5.46063158 10.8798947,5.46063158 C9.88705263,5.46063158 9.08036842,5.73642105 8.45984211,6.288 C7.83931579,6.83957895 7.37047368,7.79794737 7.05331579,9.16310526 C6.73615789,10.5282632 6.57757895,12.4105263 6.57757895,14.8098947 C6.57757895,17.2092632 6.73615789,19.0984211 7.05331579,20.4773684 C7.37047368,21.8563158 7.83931579,22.8215789 8.45984211,23.3731579 C9.08036842,23.9247368 9.88705263,24.2005263 10.8798947,24.2005263 Z" id="Shape"></path>
                    <path d="M26.6241452,29.3715789 C24.9694083,29.3715789 24.1420399,28.9303158 24.1420399,28.0477895 L24.1420399,1.98568421 C24.1420399,1.40652632 24.2730399,0.985947368 24.5350399,0.723947368 C24.7970399,0.461947368 25.2176189,0.330947368 25.7967768,0.330947368 L32.9535136,0.330947368 C35.1322505,0.330947368 37.055882,0.958368421 38.7244083,2.21321053 C40.3929347,3.46805263 41.2271978,5.86052632 41.2271978,9.39063158 C41.2271978,11.8175789 40.7445662,13.6998421 39.7793031,15.0374211 C38.8140399,16.375 37.738461,17.2782105 36.5525662,17.7470526 C35.3666715,18.2158947 34.304882,18.4503158 33.3671978,18.4503158 L30.5127768,18.4503158 L30.5127768,28.0477895 C30.5127768,28.9303158 29.6854083,29.3715789 28.0306715,29.3715789 L26.6241452,29.3715789 Z M32.6639347,13.1137895 C33.2982505,13.1137895 33.8498294,12.838 34.3186715,12.2864211 C34.7875136,11.7348421 35.0219347,10.7695789 35.0219347,9.39063158 C35.0219347,8.03926316 34.7875136,7.09468421 34.3186715,6.55689474 C33.8498294,6.01910526 33.2982505,5.75021053 32.6639347,5.75021053 L30.4714083,5.75021053 L30.4714083,13.1137895 L32.6639347,13.1137895 Z" id="Shape"></path>
                    <path d="M44.3540799,29.2888421 C43.8300799,29.2888421 43.4439746,29.1578421 43.1957641,28.8958421 C42.9475535,28.6338421 42.8234483,28.2132632 42.8234483,27.6341053 L42.8234483,1.98568421 C42.8234483,1.40652632 42.9475535,0.985947368 43.1957641,0.723947368 C43.4439746,0.461947368 43.8300799,0.330947368 44.3540799,0.330947368 L56.5577641,0.330947368 C56.9714483,0.330947368 57.2748167,0.496421053 57.4678693,0.827368421 C57.660922,1.15831579 57.7574483,1.68231579 57.7574483,2.39936842 L57.7574483,3.68178947 C57.7574483,4.39884211 57.660922,4.92284211 57.4678693,5.25378947 C57.2748167,5.58473684 56.9714483,5.75021053 56.5577641,5.75021053 L49.276922,5.75021053 L49.276922,11.7486316 L55.7303956,11.7486316 C56.1440799,11.7486316 56.4474483,11.9141053 56.6405009,12.2450526 C56.8335535,12.576 56.9300799,13.1 56.9300799,13.8170526 L56.9300799,15.0994737 C56.9300799,15.8165263 56.8335535,16.3405263 56.6405009,16.6714737 C56.4474483,17.0024211 56.1440799,17.1678947 55.7303956,17.1678947 L49.276922,17.1678947 L49.276922,23.8695789 L56.5991325,23.8695789 C57.0128167,23.8695789 57.3092904,24.0350526 57.4885535,24.366 C57.6678167,24.6969474 57.7574483,25.2209474 57.7574483,25.938 L57.7574483,27.2204211 C57.7574483,27.9374737 57.6678167,28.4614737 57.4885535,28.7924211 C57.3092904,29.1233684 57.0128167,29.2888421 56.5991325,29.2888421 L44.3540799,29.2888421 Z" id="Path"></path>
                    <path d="M62.5804356,29.3715789 C60.9808566,29.3715789 60.1810672,28.9303158 60.1810672,28.0477895 L60.1810672,1.572 C60.1810672,0.689473684 60.9808566,0.248210526 62.5804356,0.248210526 L63.6560145,0.248210526 C64.2075935,0.248210526 64.6488566,0.324052632 64.979804,0.475736842 C65.3107514,0.627421053 65.5865408,0.937684211 65.8071724,1.40652632 L73.2534882,14.8926316 C73.6395935,15.6096842 74.1084356,16.6852632 74.6600145,18.1193684 L74.8254882,18.0366316 C74.6048566,16.6025263 74.4945408,15.5131579 74.4945408,14.7685263 L74.4945408,1.572 C74.4945408,0.689473684 75.2943303,0.248210526 76.8939093,0.248210526 L77.8867514,0.248210526 C79.4863303,0.248210526 80.2861198,0.689473684 80.2861198,1.572 L80.2861198,28.0477895 C80.2861198,28.9303158 79.4863303,29.3715789 77.8867514,29.3715789 L77.1007514,29.3715789 C76.5491724,29.3715789 76.0941198,29.2957368 75.7355935,29.1440526 C75.3770672,28.9923684 75.0874882,28.6821053 74.8668566,28.2132632 L66.9654882,14.148 C66.7172777,13.7343158 66.3449619,12.8517895 65.8485408,11.5004211 L65.6416987,11.6245263 C65.8623303,12.8931579 65.9726461,13.8308421 65.9726461,14.4375789 L65.9726461,28.0477895 C65.9726461,28.9303158 65.1728566,29.3715789 63.5732777,29.3715789 L62.5804356,29.3715789 Z" id="Path"></path>
                </g>
            </g>
        </g>
    </g>
</svg>