<?xml version="1.0" encoding="UTF-8"?>
<svg width="102px" height="117px" viewBox="0 0 102 117" version="1.1" xmlns="http://www.w3.org/2000/svg" xmlns:xlink="http://www.w3.org/1999/xlink">
    <title>target_middle_high</title>
    <g id="스포츠강좌이용권" stroke="none" stroke-width="1" fill="none" fill-rule="evenodd">
        <g id="voucher_program_detail" transform="translate(-479.000000, -4818.000000)">
            <g id="target_middle_high" transform="translate(480.000000, 4819.000000)">
                <rect id="Rectangle" stroke="#DDDDDD" fill="#FFFFFF" x="0" y="0" width="100" height="115" rx="4"></rect>
                <text id="중∙고등" font-family="Cafe24-Ohsquareair, Cafe24 Ohsquare air" font-size="20" font-weight="300" line-spacing="28" fill="#112233">
                    <tspan x="22.1" y="89">중</tspan>
                    <tspan x="39.18" y="89" font-family="Helvetica-Light, Helvetica">∙</tspan>
                    <tspan x="44.74" y="89">고등</tspan>
                </text>
                <g id="Group-9" transform="translate(15.000000, 14.000000)" fill-rule="nonzero">
                    <g id="student">
                        <path d="M29.542898,46.6351902 L25.4605622,47.9999063 L12.271088,47.9999063 L7.85050286,46.6393152 C8.10550237,43.9476642 8.4454392,42.8909162 8.65403254,41.5108252 C8.77571981,40.7178892 8.21143966,40.0157968 8.90003206,39.6033914 C9.60409319,39.1813297 10.3294355,38.8066117 11.0517779,38.4743624 C11.6756829,38.1874879 12.2976192,37.9315509 12.9022117,37.7056139 C15.315707,36.7997094 17.4607966,38.3508001 18.3831073,38.1846754 C18.7018567,38.126738 19.0253873,38.126738 19.3431054,38.1846754 C20.2654161,38.3508001 22.4105057,36.7997094 24.824001,37.7056139 C26.1297484,38.1943317 27.5147145,38.8172054 28.8262744,39.6033914 C29.5148668,40.0157968 28.5593687,40.7178892 28.6810559,41.5108252 C28.889743,42.8908225 29.286961,43.9435392 29.542898,46.6351902 L29.542898,46.6351902 Z" id="Path" fill="#5766CB"></path>
                        <path d="M11.0518716,38.4742686 C10.5197477,38.920424 10.1585296,39.6718288 10.0638423,40.5197959 C9.89190513,42.090199 9.60512444,44.9054123 9.40131233,47.9999063 L7.85050286,46.6393152 C8.10550237,43.9476642 8.4454392,42.8909162 8.65403254,41.5108252 C8.77571981,40.7178892 8.21143966,40.0157968 8.90003206,39.6033914 C9.60418694,39.181236 10.3295293,38.806518 11.0518716,38.4742686 L11.0518716,38.4742686 Z" id="Path" fill="#3D4FC3"></path>
                        <path d="M14.9583327,43.4149777 C14.9583327,43.4149777 15.6249877,44.6224753 16.7021731,45.9166916 C17.3078906,46.6444714 18.043358,46.4634405 18.8631064,47.0466581 C19.682761,46.4634405 20.4181346,46.6446589 21.0238521,45.9169728 C22.1011313,44.6226628 22.76788,43.4149777 22.76788,43.4149777 L22.76788,38.4738936 L14.9583327,38.4738936 L14.9583327,43.4149777 Z" id="Path" fill="#ECF4FF"></path>
                        <path d="M21.0235709,45.9166916 C20.4181346,46.6445651 19.6825735,47.3998137 18.8629189,47.9834063 C18.0432642,47.3998137 17.3077031,46.6445651 16.7022668,45.9166916 L18.8629189,42.7947289 L21.0235709,45.9166916 Z" id="Path" fill="#D57080"></path>
                        <polyline id="Path" fill="#D57080" points="14.9583327 40.0848905 18.8632939 43.8390081 22.7683487 40.0848905 18.8636689 37.1988961"></polyline>
                        <path d="M12.271088,47.9822813 L12.2668692,47.9999063 L6.81981738,47.9999063 C7.07481688,45.3082553 7.41475371,42.8908225 7.62334706,41.5107314 C7.74503432,40.7177955 8.21153341,40.0157031 8.90012581,39.6032976 C9.34534369,39.832141 9.73553043,40.1074842 10.0783735,40.4155461 C11.6654642,41.8414808 12.2224318,43.9659454 12.4147127,45.4236613 C12.5274,46.2776284 12.4726501,47.1448142 12.271088,47.9822813 Z" id="Path" fill="#ECF4FF"></path>
                        <path d="M10.0783735,40.4155461 C10.072561,40.4503272 10.0677798,40.4851084 10.063936,40.5198896 C9.89199888,42.0902928 9.60521819,44.905506 9.40140608,48 L6.81981738,48 C7.07481688,45.308349 7.41475371,42.8909162 7.62334706,41.5108252 C7.74503432,40.7178892 8.21153341,40.0157968 8.90012581,39.6033914 C9.34534369,39.8322347 9.73553043,40.1074842 10.0783735,40.4155461 L10.0783735,40.4155461 Z" id="Path" fill="#DDEAFB"></path>
                        <path d="M30.9076141,47.9999063 L25.4605622,47.9999063 C25.451656,47.9629688 25.4429373,47.9268751 25.434406,47.8918127 C25.2564689,47.1603766 25.2006877,46.4035344 25.2844063,45.6554108 C25.4807184,43.900883 26.2069045,40.9511388 28.8263681,39.6033914 C29.5149606,40.0157968 29.9814596,40.7178892 30.1031469,41.5108252 C30.3117402,42.8908225 30.6516771,45.3082553 30.9076141,47.9999063 L30.9076141,47.9999063 Z" id="Path" fill="#ECF4FF"></path>
                        <path d="M24.8240947,37.7056139 L22.7683487,43.4149777 L18.8633876,39.6607663 L14.9584265,43.4149777 L12.9026805,37.7056139 C15.3158008,36.7996156 17.4612653,36.3526165 18.3836698,36.1864918 C18.7016692,36.1285544 19.0251998,36.1285544 19.3432929,36.1864918 C20.2655099,36.3525227 22.4109744,36.7995219 24.8240947,37.7056139 Z" id="Path" fill="#DDEAFB"></path>
                        <path d="M33.4443904,21.4224894 L29.0611177,26.4215109 L12.0399009,21.7263326 L3.30748049,21.8505511 C3.30748049,21.8505511 -1.0782297,15.4381573 0.250955207,9.17098209 C1.58014011,2.90530683 9.6509681,6.70273691 9.6509681,6.70273691 C9.6509681,6.70273691 14.0410845,-2.66453005e-15 19.832292,-2.66453005e-15 C28.4374939,-2.66453005e-15 32.0597993,8.22204644 35.9530417,5.27923969 C35.9530417,5.27923969 41.0586568,14.9307833 33.4443904,21.4224894 Z" id="Path" fill="#9D6B6B"></path>
                        <path d="M12.0399009,21.7263326 L7.07200438,24.340265 L3.30738674,21.8506448 C3.30738674,21.8506448 -1.07832345,15.4382511 0.250861457,9.17107584 C1.58014011,2.90530683 9.6509681,6.70273691 9.6509681,6.70273691 C9.6509681,6.70273691 6.88337975,11.3293841 11.8991825,15.0220957 C13.5172105,16.2120621 13.2058674,18.7866196 12.0399009,21.7263326 Z" id="Path" fill="#8B5E5E"></path>
                        <path d="M21.8280381,31.745188 L21.8280381,36.6963033 C21.8280381,38.3332689 20.5006344,39.6606725 18.8636689,39.6606725 C17.2257658,39.6606725 15.8983621,38.3332689 15.8983621,36.6963033 L15.8983621,31.745188 L21.8280381,31.745188 Z" id="Path" fill="#FFDDCE"></path>
                        <path d="M19.8317295,39.4990479 C19.5284488,39.6033914 19.2028557,39.660485 18.8638564,39.660485 C17.2259533,39.660485 15.8985496,38.3330814 15.8985496,36.6961158 L15.8985496,31.7450005 L17.8343896,31.7450005 L17.8343896,36.6961158 C17.8342959,37.9949258 18.6693255,39.0984549 19.8317295,39.4990479 Z" id="Path" fill="#FFCBBE"></path>
                        <path d="M6.47800554,27.622446 C4.34041597,27.622446 2.6076381,25.8895744 2.6076381,23.7520786 C2.6076381,23.4578917 2.64045054,23.1713922 2.70260667,22.8959553 C3.20473069,20.6723034 6.47800554,21.0369902 6.47800554,23.3166107 L31.2485822,23.3166107 C31.2485822,21.0369902 34.521857,20.6722096 35.023981,22.8959553 C35.0861372,23.1713922 35.1189496,23.4578917 35.1189496,23.7520786 C35.1189496,25.8896682 33.386078,27.622446 31.2485822,27.622446" id="Path" fill="#FFCBBE"></path>
                        <path d="M6.47866179,25.4792315 C6.25122474,25.4792315 6.02744392,25.3723567 5.8864442,25.1727633 C5.87894421,25.1623571 5.7080383,24.9294826 5.45050755,24.7530454 C5.10560197,24.5166084 4.87900867,24.5646083 4.73838394,24.6212332 C4.36732217,24.7708579 3.94526049,24.5915145 3.79563578,24.2204527 C3.64591733,23.8494847 3.82535448,23.427423 4.1963225,23.2777045 C4.8897899,22.9979551 5.64316342,23.1096111 6.31769336,23.5918602 C6.76750498,23.913422 7.04209819,24.2974213 7.07191063,24.3401712 C7.30094144,24.6682018 7.22059784,25.1197009 6.89256723,25.3487317 C6.76637998,25.4368566 6.62181776,25.4792315 6.47866179,25.4792315 L6.47866179,25.4792315 Z" id="Path" fill="#EAAC9D"></path>
                        <path d="M31.2480197,25.481669 C31.1045824,25.481669 30.9595515,25.4391066 30.8328017,25.3506067 C30.5047711,25.1216697 30.42574,24.6682018 30.6547708,24.3401712 C30.6845833,24.2974213 30.9591765,23.9133283 31.4089881,23.5918602 C32.0836118,23.1096111 32.8368916,22.9979551 33.530359,23.2777045 C33.901327,23.427423 34.0807641,23.8494847 33.9310457,24.2204527 C33.781421,24.5914207 33.359453,24.7707641 32.9882975,24.6212332 C32.8476728,24.5645145 32.6210795,24.5166084 32.2761739,24.7530454 C32.0141432,24.9327638 31.8417373,25.1707946 31.839956,25.1731383 C31.6995188,25.3743254 31.475738,25.481669 31.2480197,25.481669 L31.2480197,25.481669 Z" id="Path" fill="#EAAC9D"></path>
                        <polygon id="Path" fill="#FFCBBE" points="15.8982684 31.745188 21.8279443 31.745188 21.8279443 36.3063978 15.8982684 36.3063978"></polygon>
                        <path d="M31.2485822,18.7701196 L31.2485822,25.7093873 C31.2485822,30.6952838 27.2072151,34.7367447 22.2212248,34.7367447 L15.5049879,34.7367447 C10.5190914,34.7367447 6.47763055,30.6953775 6.47763055,25.7093873 L6.47763055,18.7701196 C9.6763743,18.7701196 12.270338,16.1776559 12.270338,12.9789122 C12.270338,12.9789122 12.3167441,13.0223183 12.4080565,13.1016307 C13.3779921,13.9383478 19.4925426,18.7701196 31.2485822,18.7701196 L31.2485822,18.7701196 Z" id="Path" fill="#FFDDCE"></path>
                        <path d="M21.4354138,34.7366509 L15.5049879,34.7366509 C10.5190914,34.7366509 6.47763055,30.6952838 6.47763055,25.7092935 L6.47763055,18.7700258 C9.6763743,18.7700258 12.270338,16.1775622 12.270338,12.9788184 C12.270338,12.9788184 12.3167441,13.0222246 12.4080565,13.1015369 L12.4080565,25.7091998 C12.4080565,30.6952838 16.4495173,34.7366509 21.4354138,34.7366509 L21.4354138,34.7366509 Z" id="Path" fill="#FFCBBE"></path>
                        <g id="Group" transform="translate(11.886526, 19.641712)" fill="#2B4D66">
                            <path d="M1.16924772,0 C0.524530226,0 0,0.87065455 0,1.94080871 C0,3.01096287 0.524530226,3.88161742 1.16924772,3.88161742 C1.81405896,3.88161742 2.33858918,3.01096287 2.33858918,1.94080871 C2.33858918,0.87065455 1.81405896,0 1.16924772,0 Z" id="Path"></path>
                            <ellipse id="Oval" cx="12.7843813" cy="1.94080871" rx="1.16924772" ry="1.94080871"></ellipse>
                        </g>
                        <g id="Group" transform="translate(8.665564, 24.244078)" fill="#EAAFA5">
                            <ellipse id="Oval" cx="18.3681204" cy="1.23281009" rx="2.02743354" ry="1.23281009"></ellipse>
                            <ellipse id="Oval" cx="2.02743354" cy="1.23281009" rx="2.02743354" ry="1.23281009"></ellipse>
                        </g>
                        <path d="M18.8633876,29.6284109 C18.0424205,29.6284109 17.2707657,29.308724 16.6902668,28.7283189 C16.4073299,28.4454757 16.4073299,27.9868516 16.6902668,27.7039146 C16.9732038,27.4210714 17.4318279,27.4210714 17.7146711,27.7039146 C18.0215142,28.0107578 18.4294197,28.179695 18.8633876,28.179695 C19.2972618,28.179695 19.705261,28.0107578 20.0121041,27.7039146 C20.2950411,27.4210714 20.7536652,27.4210714 21.0365084,27.7039146 C21.3194453,27.9867578 21.3194453,28.4453819 21.0365084,28.7283189 C20.4560095,29.308724 19.684261,29.6284109 18.8633876,29.6284109 Z" id="Path" fill="#D57080"></path>
                    </g>
                    <g id="student-(1)" transform="translate(33.000000, 0.000000)">
                        <path d="M17.5271845,2.66453005e-15 C27.2071344,2.66453005e-15 35.0542753,7.84714092 35.0542753,17.5270908 L35.0542753,34.1629958 C35.0542753,38.8645491 32.0603749,43.0441034 27.6089461,44.5569442 L17.5271845,47.9834063 L7.44542296,44.5569442 C2.99399415,43.0440097 9.37498169e-05,38.8644553 9.37498169e-05,34.1629958 L9.37498169e-05,17.5270908 C9.37498169e-05,7.84714092 7.84723467,2.66453005e-15 17.5271845,2.66453005e-15 Z" id="Path" fill="#D57080"></path>
                        <path d="M13.2560366,44.5571317 L17.5271845,47.9834063 L7.44607921,44.5571317 C2.9946504,43.0445722 1.33226503e-15,38.8641741 1.33226503e-15,34.1634645 L1.33226503e-15,17.5270908 C1.33226503e-15,7.84714092 7.84714092,0 17.5271845,0 C13.4265675,0 10.1019178,7.84714092 10.1019178,17.5270908 L10.1019178,34.1634645 C10.1019178,38.8640803 11.3707278,43.0444784 13.2560366,44.5571317 Z" id="Path" fill="#CB5769"></path>
                        <path d="M27.9770079,46.4053156 L24.1258591,47.9999063 L10.9308537,47.9999063 L7.60029766,45.4343488 C7.85529716,42.7426978 7.99535938,43.2569155 8.20489022,41.8768245 C8.32563999,41.0838885 6.87542407,40.0157031 7.56401648,39.6032976 C8.2680776,39.181236 8.99341993,38.806518 9.71679352,38.4742686 C10.3406986,38.1873942 10.9616973,37.9314572 11.5662899,37.7055201 C13.9797852,36.7996156 16.124781,38.6621432 17.048123,38.4960186 C17.3658411,38.4380812 17.6893717,38.4380812 18.0071836,38.4960186 C18.9294943,38.6621432 21.0755213,36.7996156 23.4880791,37.7055201 C24.7938266,38.1942379 26.1787926,38.8171117 27.4903526,39.6032976 C28.178945,40.0157031 26.9883223,41.9673868 27.1100096,42.7603227 C27.3186029,44.1404138 27.7210709,43.7136646 27.9770079,46.4053156 L27.9770079,46.4053156 Z" id="Path" fill="#5766CB"></path>
                        <path d="M9.71679352,38.4742686 C9.18363831,38.920424 8.82251402,39.6718288 8.7287642,40.5197959 C8.55588954,42.090199 8.2690151,44.9054123 8.06623425,47.9999063 L6.25217529,46.6500026 C6.50717479,43.9583516 7.16801725,44.2816948 7.37764184,42.90151 C7.4983916,42.108574 6.87542407,40.0156093 7.56401648,39.6032039 C8.26817135,39.181236 8.99341993,38.806518 9.71679352,38.4742686 L9.71679352,38.4742686 Z" id="Path" fill="#3D4FC3"></path>
                        <path d="M13.6228796,43.4149777 C13.6228796,43.4149777 14.2895346,44.6224753 15.36672,45.9166916 C15.9724376,46.6444714 16.7079049,46.4634405 17.5276533,47.0466581 C18.3473079,46.4634405 19.0826815,46.6446589 19.688399,45.9169728 C20.7656782,44.6226628 21.4324269,43.4149777 21.4324269,43.4149777 L21.4324269,38.4738936 L13.6228796,38.4738936 L13.6228796,43.4149777 Z" id="Path" fill="#ECF4FF"></path>
                        <path d="M19.6881178,45.9166916 C19.0826815,46.6445651 18.3471204,47.3998137 17.527372,47.9834063 C16.7077174,47.3998137 15.9721563,46.6445651 15.36672,45.9166916 L17.527372,42.9016037 L19.6881178,45.9166916 Z" id="Path" fill="#D57080"></path>
                        <polyline id="Path" fill="#D57080" points="13.6228796 40.0848905 17.5278408 43.8390081 21.4328956 40.0848905 17.9609649 38.1028318"></polyline>
                        <path d="M10.9569161,47.891719 C10.9492286,47.9265001 10.9405099,47.9631563 10.9308537,47.9999063 L5.48380179,47.9999063 C5.73880129,45.3082553 6.07873813,42.8908225 6.28826897,41.5107314 C6.40901873,40.7177955 6.87551782,40.0157031 7.56411023,39.6032976 C8.00932811,39.832141 8.39951484,40.1074842 8.74235793,40.4155461 C10.4160734,41.9192931 10.9443536,44.1994762 11.1075721,45.6549421 C11.1906344,46.4034406 11.1356033,47.1606579 10.9569161,47.891719 L10.9569161,47.891719 Z" id="Path" fill="#ECF4FF"></path>
                        <path d="M29.5719735,47.9999063 L24.1258591,47.9999063 C24.1169529,47.9628751 24.1082342,47.9267814 24.0997029,47.8916252 C23.9218595,47.1602829 23.8659846,46.4035344 23.9496095,45.6555046 C24.1458278,43.9010705 24.8717327,40.951045 27.4906338,39.6032976 C28.1792262,40.0157031 28.6457253,40.7177955 28.7674126,41.5107314 C28.9760997,42.8908225 29.3160365,45.3082553 29.5719735,47.9999063 L29.5719735,47.9999063 Z" id="Path" fill="#ECF4FF"></path>
                        <path d="M8.74235793,40.4155461 C8.73654544,40.4503272 8.73270169,40.4851084 8.72885795,40.5198896 C8.55598329,42.0902928 8.26910885,44.905506 8.066328,48 L5.48380179,48 C5.73880129,45.308349 6.07873813,42.8909162 6.28826897,41.5108252 C6.40901873,40.7178892 6.87551782,40.0157968 7.56411023,39.6033914 C8.00932811,39.8322347 8.39951484,40.1074842 8.74235793,40.4155461 L8.74235793,40.4155461 Z" id="Path" fill="#DDEAFB"></path>
                        <path d="M23.4886416,37.7056139 L21.4328956,43.4149777 L17.5279345,39.6607663 L13.6229734,43.4149777 L11.5672274,37.7056139 C13.9803477,36.7996156 16.1258123,36.3526165 17.0482167,36.1864918 C17.3662161,36.1285544 17.6897467,36.1285544 18.0078398,36.1864918 C18.9300568,36.3525227 21.0755213,36.7995219 23.4886416,37.7056139 Z" id="Path" fill="#DDEAFB"></path>
                        <path d="M20.4924912,31.7450942 L20.4924912,36.6962096 C20.4924912,38.3331751 19.1650876,39.6605788 17.528122,39.6605788 C15.890219,39.6605788 14.5628153,38.3331751 14.5628153,36.6962096 L14.5628153,31.7450942 L20.4924912,31.7450942 Z" id="Path" fill="#FFDDCE"></path>
                        <path d="M18.4962764,39.4989541 C18.1929957,39.6032976 17.8674026,39.6603913 17.5284033,39.6603913 C15.8905002,39.6603913 14.5630966,38.3329876 14.5630966,36.6960221 L14.5630966,31.7449067 L16.4989365,31.7449067 L16.4989365,36.6960221 C16.4988428,37.994832 17.3338724,39.0983611 18.4962764,39.4989541 Z" id="Path" fill="#FFCBBE"></path>
                        <polygon id="Path" fill="#FFCBBE" points="14.5628153 31.7450942 20.4924912 31.7450942 20.4924912 36.3063041 14.5628153 36.3063041"></polygon>
                        <path d="M29.9125666,18.9070881 L29.9125666,25.7101373 C29.9125666,30.6950963 25.871387,34.7372134 20.8854905,34.7372134 L14.1689723,34.7372134 C9.18401331,34.7372134 5.14189621,30.6960338 5.14189621,25.7101373 L5.14189621,18.9847129 C6.67892446,18.940088 8.79410782,18.6778698 11.0725096,18.2148394 C15.7417193,17.2656225 21.1013963,15.471626 23.5947664,12.9782559 C23.5947664,12.9782559 26.0614178,18.0185273 29.9125666,18.9070881 Z" id="Path" fill="#FFDDCE"></path>
                        <path d="M20.0995857,34.7371197 L14.1689723,34.7371197 C9.18401331,34.7371197 5.14189621,30.69594 5.14189621,25.7100435 L5.14189621,18.9846192 C6.67892446,18.9399943 8.79410782,18.677776 11.0725096,18.2147457 L11.0725096,25.7100435 C11.0725096,30.6950963 15.1136892,34.7371197 20.0995857,34.7371197 Z" id="Path" fill="#FFCBBE"></path>
                        <g id="Group" transform="translate(8.204890, 25.118763)" fill="#EAAFA5">
                            <ellipse id="Oval" cx="16.6185613" cy="1.23281009" rx="2.02743354" ry="1.23281009"></ellipse>
                            <ellipse id="Oval" cx="2.02743354" cy="1.23281009" rx="2.02743354" ry="1.23281009"></ellipse>
                        </g>
                        <g id="Group" transform="translate(9.760481, 20.631991)" fill="#2B4D66">
                            <path d="M2.15465204,0 C2.11405837,0 0.707248619,0.0105937293 0.693186146,0.0106874791 C0.310968143,0.0106874791 2.66453005e-15,0.321655622 2.66453005e-15,0.703873625 C2.66453005e-15,1.08609163 0.310968143,1.39705977 0.693186146,1.39705977 L1.021873,1.39705977 C0.989623067,1.57724692 0.973310599,1.76399655 0.973310599,1.95280869 C0.973310599,3.02961908 1.50327831,3.90561737 2.15465204,3.90561737 C2.80611952,3.90561737 3.33608723,3.02961908 3.33608723,1.95280869 C3.33608723,0.875998289 2.80611952,0 2.15465204,0 L2.15465204,0 Z" id="Path"></path>
                            <path d="M14.8403148,0.0106874791 C14.8182836,0.0104999795 13.330099,0 13.289599,0 C12.6381316,0 12.1081639,0.876092039 12.1081639,1.95280869 C12.1081639,3.02952533 12.6381316,3.90561737 13.289599,3.90561737 C13.9409728,3.90561737 14.4709405,3.02961908 14.4709405,1.95280869 C14.4709405,1.7640903 14.454628,1.57734067 14.4223781,1.39705977 L14.840221,1.39705977 C15.222439,1.39705977 15.5334072,1.08609163 15.5334072,0.703873625 C15.5334072,0.321749372 15.222439,0.0107812289 14.8403148,0.0106874791 L14.8403148,0.0106874791 Z" id="Path"></path>
                        </g>
                        <path d="M17.5271845,29.6456608 C16.7372486,29.6456608 15.9946563,29.3380677 15.4360949,28.7795063 C15.1531579,28.4966631 15.1531579,28.038039 15.4360949,27.755102 C15.718938,27.4721651 16.1775622,27.4721651 16.4604991,27.755102 C16.7454048,28.0400077 17.1242478,28.1969449 17.5271845,28.1969449 C17.9301212,28.1969449 18.3089642,28.0400077 18.5938699,27.755102 C18.8767131,27.4722588 19.3353372,27.4722588 19.6182742,27.755102 C19.9011174,28.0379452 19.9012111,28.4965693 19.6182742,28.7795063 C19.0598065,29.3379739 18.3171205,29.6456608 17.5271845,29.6456608 Z" id="Path" fill="#D57080"></path>
                    </g>
                </g>
            </g>
        </g>
    </g>
</svg>