<?xml version="1.0" encoding="UTF-8"?>
<svg width="64px" height="64px" viewBox="0 0 64 64" version="1.1" xmlns="http://www.w3.org/2000/svg" xmlns:xlink="http://www.w3.org/1999/xlink">
    <title>ic_cv</title>
    <g id="for_export" stroke="none" stroke-width="1" fill="none" fill-rule="evenodd">
        <g id="keepfit_for_expert_3" transform="translate(-736.000000, -1719.000000)" fill="#000000" fill-rule="nonzero">
            <g id="ic_cv" transform="translate(736.000000, 1719.000000)">
                <path d="M50.5765506,63.9108387 L1.99609607,63.9108387 C1.49185348,63.9108387 1.08308409,63.5020693 1.08308409,62.9978267 L1.08308409,0.913011981 C1.08308409,0.408769388 1.49185348,0 1.99609607,0 L37.8957272,0 C38.1378532,0 38.3700435,0.0962776842 38.5412266,0.26751251 L51.2229631,12.9492489 C51.3941979,13.120432 51.4904756,13.3526224 51.4904756,13.5947484 L51.4904756,27.6733931 C51.4904756,28.1776357 51.0817062,28.5864051 50.5774636,28.5864051 C50.073221,28.5864051 49.6644516,28.1776357 49.6644516,27.6733931 L49.6644516,13.9690833 L37.5204792,1.82602396 L2.90910805,1.82602396 L2.90910805,62.0848147 L49.6635386,62.0848147 L49.6635386,49.9234951 C49.6635386,49.4192525 50.072308,49.0104831 50.5765506,49.0104831 C51.0807932,49.0104831 51.4895626,49.4192525 51.4895626,49.9234951 L51.4895626,62.9978267 C51.4895626,63.5020693 51.0807932,63.9108387 50.5765506,63.9108387 Z" id="Path"></path>
                <path d="M50.5765506,14.5104994 L37.8939011,14.5104994 C37.3896585,14.5104994 36.9808892,14.10173 36.9808892,13.5974874 L36.9808892,0.913011981 C36.9808892,0.543793681 37.2034153,0.210965981 37.5445329,0.0696829204 C37.8856506,-0.0716001398 38.2782844,0.00647515805 38.5394006,0.26751251 L51.2238761,12.951988 C51.4849134,13.2131041 51.5629887,13.605738 51.4217057,13.9468556 C51.2804226,14.2879733 50.9475949,14.5104994 50.5783766,14.5104994 L50.5765506,14.5104994 Z M38.8050871,12.6844755 L48.3743657,12.6844755 L38.8069131,3.1170229 L38.8050871,12.6844755 Z" id="Shape"></path>
                <path d="M58.2641115,57.3910201 C57.2558206,57.3871401 56.2899554,56.9847783 55.5771172,56.2716674 L46.6149916,47.2182406 C46.3790639,46.9877741 46.2857714,46.647982 46.3709413,46.3293556 C46.4561113,46.0107292 46.7065024,45.762805 47.0259564,45.6807938 C47.3454105,45.5987827 47.6842622,45.6954349 47.9123816,45.9336328 L56.8690291,54.9815815 C57.5493935,55.7123268 58.6896888,55.7634939 59.4327668,55.096621 C59.7404547,54.7850093 59.9104641,54.3631097 59.904794,53.9252266 C59.8995903,53.39691 59.6855903,52.8921062 59.3095102,52.5210142 L50.2907778,43.4018505 C49.9360432,43.0433341 49.939109,42.4651298 50.2976254,42.1103951 C50.6561419,41.7556605 51.2343462,41.7587262 51.5890809,42.1172427 L60.6087262,51.2382324 C61.3229259,51.9505671 61.7263104,52.9165237 61.7308179,53.9252266 C61.740692,54.8483724 61.3783338,55.7365881 60.7255338,56.3893881 C60.0727339,57.042188 59.1845182,57.4045462 58.2613724,57.3946722 L58.2641115,57.3910201 Z" id="Path"></path>
                <path d="M39.480716,49.8048589 C32.5982951,49.8054892 26.6739149,44.9441503 25.3309756,38.1940221 C23.9880362,31.4438939 27.6006041,24.6851772 33.9592026,22.0515594 C40.317801,19.4179417 47.6512872,21.6429986 51.4744398,27.3658668 C55.2975925,33.0887351 54.5454993,40.7153499 49.6781468,45.5812101 C46.9795473,48.294556 43.3075387,49.8154363 39.480716,49.8048589 L39.480716,49.8048589 Z M39.480716,22.786909 C33.4693548,22.7847105 28.2936596,27.0294589 27.1192404,32.9249832 C25.9448211,38.8205076 29.0988192,44.7245745 34.6521551,47.02608 C40.205491,49.3275856 46.6112501,47.3854318 49.9514784,42.387498 C53.2917067,37.3895641 52.6359639,30.7280544 48.3853218,26.4773475 C46.0293218,24.1070199 42.8227378,22.7780942 39.480716,22.786909 L39.480716,22.786909 Z" id="Shape"></path>
                <path d="M39.481629,45.9573979 C34.5861229,45.9519273 30.3344997,42.5866771 29.205048,37.8232383 C28.0755962,33.0597996 30.3636945,28.1439259 34.7356011,25.9410999 C39.1075077,23.7382739 44.4198642,24.8245874 47.5760764,28.5668239 C50.7322886,32.3090605 50.9069314,37.7285354 47.9982047,41.6662148 C46.0051267,44.3712634 42.8425406,45.9649328 39.482542,45.9573979 L39.481629,45.9573979 Z M39.481629,26.6334711 C35.5193181,26.6336877 32.0512093,29.2953463 31.0261538,33.1227695 C30.0010982,36.9501928 31.6747226,40.9889037 35.1065592,42.96941 C38.5383958,44.9499163 42.8726183,44.3783223 45.6736762,41.5758266 C45.9833851,41.2644559 46.2696347,40.9305997 46.5300815,40.5769915 C48.4900646,37.9190219 48.786642,34.383992 47.2969297,31.4366044 C45.8072175,28.4892168 42.7850157,26.6316133 39.482542,26.6334711 L39.481629,26.6334711 Z" id="Shape"></path>
                <path d="M39.4788899,35.9215435 C37.9208193,35.9219127 36.5159611,34.9836378 35.9194573,33.5442742 C35.3229536,32.1049107 35.6522888,30.4479481 36.7538805,29.3460952 C37.8554723,28.2442423 39.5123567,27.9145144 40.9518616,28.5106769 C42.3913665,29.1068394 43.3299745,30.5114752 43.3299745,32.0695458 C43.32746,34.1955466 41.6048901,35.918525 39.4788899,35.9215435 L39.4788899,35.9215435 Z M39.4788899,30.043572 C38.6593771,30.0432029 37.9203535,30.5365813 37.6064836,31.2936065 C37.2926137,32.0506316 37.4657219,32.9221887 38.0450744,33.5018024 C38.6244269,34.0814161 39.4959059,34.2549172 40.2530724,33.9413886 C41.010239,33.6278599 41.5039505,32.8890587 41.5039505,32.0695458 C41.5029447,30.9514048 40.5970304,30.0450821 39.4788899,30.043572 L39.4788899,30.043572 Z" id="Shape"></path>
                <path d="M39.481629,45.957382 C36.1176987,45.9621925 32.9525962,44.3645531 30.9586621,41.6552586 C30.7430441,41.3603222 30.7240085,40.9652453 30.9102725,40.6509454 C32.1214919,38.6563377 34.0263464,37.1790107 36.2596097,36.502219 C36.5666401,36.4051115 36.9021203,36.4769257 37.1424923,36.6912125 C38.4874936,37.8421094 40.4702863,37.8421094 41.8152876,36.6912125 C42.055549,36.4745917 42.3929544,36.4022409 42.7009092,36.501306 C44.9350142,37.179539 46.8399729,38.6588976 48.0502464,40.6555105 C48.2351817,40.9707101 48.2143486,41.36582 47.9972917,41.6598237 C46.0042137,44.3648723 42.8416276,45.9585417 39.481629,45.95098 L39.481629,45.957382 Z M32.8166415,41.0645399 C32.9663755,41.2398382 33.1243266,41.4105714 33.2886687,41.5758266 C36.7123458,44.9844369 42.2472601,44.9844369 45.6709372,41.5758266 C45.8316273,41.4142235 45.9868393,41.2462293 46.1374863,41.0672789 C45.2458529,39.8498067 44.0148618,38.9224347 42.5986519,38.4012839 C40.7237371,39.710179 38.2313037,39.710179 36.356389,38.4012839 C34.9411982,38.9220044 33.7109175,39.848367 32.8193806,41.0645399 L32.8166415,41.0645399 Z" id="Shape"></path>
                <path d="M20.1440352,7.51774065 L7.49973229,7.51774065 C6.9954897,7.51774065 6.58672031,7.10897126 6.58672031,6.60472867 C6.58672031,6.10048608 6.9954897,5.69171669 7.49973229,5.69171669 L20.1440352,5.69171669 C20.6482778,5.69171669 21.0570472,6.10048608 21.0570472,6.60472867 C21.0570472,7.10897126 20.6482778,7.51774065 20.1440352,7.51774065 Z" id="Path"></path>
                <path d="M15.9660924,12.5886092 L7.49973229,12.5886092 C6.9954897,12.5886092 6.58672031,12.1798398 6.58672031,11.6755972 C6.58672031,11.1713546 6.9954897,10.7625852 7.49973229,10.7625852 L15.9660924,10.7625852 C16.470335,10.7625852 16.8791044,11.1713546 16.8791044,11.6755972 C16.8791044,12.1798398 16.470335,12.5886092 15.9660924,12.5886092 Z" id="Path"></path>
                <path d="M44.2365954,55.5111284 L7.49973229,55.5111284 C6.9954897,55.5111284 6.58672031,55.1023591 6.58672031,54.5981165 C6.58672031,54.0938739 6.9954897,53.6851045 7.49973229,53.6851045 L44.2365954,53.6851045 C44.740838,53.6851045 45.1496074,54.0938739 45.1496074,54.5981165 C45.1496074,55.1023591 44.740838,55.5111284 44.2365954,55.5111284 Z" id="Path"></path>
                <path d="M21.0342219,47.1479387 L7.49973229,47.1479387 C6.9954897,47.1479387 6.58672031,46.7391693 6.58672031,46.2349267 C6.58672031,45.7306841 6.9954897,45.3219147 7.49973229,45.3219147 L21.0342219,45.3219147 C21.5384645,45.3219147 21.9472339,45.7306841 21.9472339,46.2349267 C21.9472339,46.7391693 21.5384645,47.1479387 21.0342219,47.1479387 Z" id="Path"></path>
                <path d="M21.0342219,38.788401 L7.49973229,38.788401 C6.9954897,38.788401 6.58672031,38.3796316 6.58672031,37.875389 C6.58672031,37.3711464 6.9954897,36.962377 7.49973229,36.962377 L21.0342219,36.962377 C21.5384645,36.962377 21.9472339,37.3711464 21.9472339,37.875389 C21.9472339,38.3796316 21.5384645,38.788401 21.0342219,38.788401 Z" id="Path"></path>
                <path d="M21.0342219,30.4297763 L7.49973229,30.4297763 C6.9954897,30.4297763 6.58672031,30.0210069 6.58672031,29.5167643 C6.58672031,29.0125217 6.9954897,28.6037524 7.49973229,28.6037524 L21.0342219,28.6037524 C21.5384645,28.6037524 21.9472339,29.0125217 21.9472339,29.5167643 C21.9472339,30.0210069 21.5384645,30.4297763 21.0342219,30.4297763 Z" id="Path"></path>
            </g>
        </g>
    </g>
</svg>