<?xml version="1.0" encoding="UTF-8"?>
<svg width="20px" height="20px" viewBox="0 0 20 20" version="1.1" xmlns="http://www.w3.org/2000/svg" xmlns:xlink="http://www.w3.org/1999/xlink">
    <title>ic_gender_male</title>
    <g id="Symbols" stroke="none" stroke-width="1" fill="none" fill-rule="evenodd">
        <g id="ic_gender/male" fill="#7A7FE8" fill-rule="nonzero">
            <path d="M16.8823281,4.61504687 L14.1110313,7.38623828 C15.0467852,8.63924219 15.5468828,10.1496602 15.5468828,11.7266289 C15.5468828,13.6682383 14.7894414,15.4967148 13.4164492,16.8695664 C12.0434219,18.242418 10.2151211,19 8.27351172,19 C6.33190234,19 4.50335547,18.2424883 3.13043359,16.8695664 C1.75751172,15.4966445 1,13.6682383 1,11.7266289 C1,9.78498437 1.75744141,7.95647266 3.13039844,6.58355078 C4.50328516,5.21066406 6.3319375,4.45311719 8.27347656,4.45311719 C9.85044531,4.45311719 11.3606523,4.95335547 12.6137969,5.88889844 L15.384918,3.11767188 L14.2855469,3.11767188 C13.7009336,3.11767188 13.2267109,2.64341406 13.2267109,2.05883594 C13.2267109,1.47425781 13.7009688,1 14.285582,1 L17.9411641,1 C18.5257773,1 19,1.47425781 19,2.05883594 L19,5.71441797 C19,6.29899609 18.5257773,6.77325391 17.9411641,6.77325391 C17.3565508,6.77325391 16.8823281,6.29899609 16.8823281,5.71441797 L16.8823281,4.61504687 Z M11.9190391,15.3724727 C12.8936406,14.3979414 13.4291758,13.1048594 13.4291758,11.7266641 C13.4291758,10.3485742 12.8935703,9.05542187 11.9190391,8.08103125 C10.9446133,7.10674609 9.65149609,6.57082422 8.27351172,6.57082422 C6.89524609,6.57082422 5.60212891,7.10646484 4.62749219,8.08099609 C3.65306641,9.05535156 3.11763672,10.3486797 3.11763672,11.7266641 C3.11763672,13.1047539 3.65299609,14.3979766 4.62749219,15.3724727 C5.60202344,16.3470039 6.89528125,16.8824687 8.27347656,16.8824687 C9.65142578,16.8824687 10.9446836,16.3467578 11.9190391,15.3724727 L11.9190391,15.3724727 Z" id="Shape"></path>
        </g>
    </g>
</svg>