<?xml version="1.0" encoding="UTF-8"?>
<svg width="20px" height="20px" viewBox="0 0 20 20" version="1.1" xmlns="http://www.w3.org/2000/svg" xmlns:xlink="http://www.w3.org/1999/xlink">
    <title>ic_gender_female</title>
    <g id="Symbols" stroke="none" stroke-width="1" fill="none" fill-rule="evenodd">
        <g id="ic_gender/female" fill="#E87AC1" fill-rule="nonzero">
            <g id="ic_gender_female">
                <path d="M11.2623828,14.1767969 L11.2623828,15.5638672 L12.1840234,15.5638672 C12.8075391,15.5638672 13.3131641,16.0694922 13.3131641,16.6930078 C13.3131641,17.3165234 12.8075391,17.8221875 12.1840234,17.8221875 L11.2623828,17.8221875 L11.2623828,18.8708203 C11.2623828,19.4943359 10.7567578,20 10.1332422,20 C9.50972656,20 9.00410156,19.494375 9.00410156,18.8708203 L9.00410156,17.8221875 L8.08210938,17.8221875 C7.45878906,17.8221875 6.95296875,17.3164062 6.95296875,16.6930078 C6.95296875,16.0696484 7.45878906,15.5638672 8.08210938,15.5638672 L9.00410156,15.5638672 L9.00410156,14.1767969 C5.57835938,13.6306641 3,10.6536719 3,7.13324219 C3,3.1996875 6.19964844,0 10.1332422,0 C14.0667969,0 17.2666406,3.19964844 17.2666406,7.13324219 C17.2666406,10.65375 14.6882422,13.6306641 11.2623828,14.1767969 Z M5.258125,7.13324219 C5.258125,9.8209375 7.44558594,12.0081641 10.1332031,12.0081641 C12.8209375,12.0081641 15.0082813,9.82101563 15.0082813,7.13324219 C15.0082813,4.44546875 12.8208984,2.25832031 10.1332031,2.25832031 C7.445625,2.25832031 5.258125,4.44554688 5.258125,7.13324219 Z" id="Shape"></path>
            </g>
        </g>
    </g>
</svg>