<?xml version="1.0" encoding="UTF-8"?>
<svg width="64px" height="64px" viewBox="0 0 64 64" version="1.1" xmlns="http://www.w3.org/2000/svg" xmlns:xlink="http://www.w3.org/1999/xlink">
    <title>ic_knowhow</title>
    <g id="for_export" stroke="none" stroke-width="1" fill="none" fill-rule="evenodd">
        <g id="keepfit_for_expert_3" transform="translate(-250.000000, -2037.000000)" fill="#000000" fill-rule="nonzero">
            <g id="ic_knowhow" transform="translate(250.000000, 2037.000000)">
                <path d="M17.6412903,44.0454194 C19.4570323,42.7313548 20.6451613,40.6007742 20.6451613,38.1935484 C20.6451613,34.2100645 17.403871,30.9677419 13.4193548,30.9677419 C9.43483871,30.9677419 6.19354839,34.2100645 6.19354839,38.1935484 C6.19354839,40.6007742 7.38167742,42.7313548 9.19741935,44.0454194 C3.86270968,45.819871 0,50.8510968 0,56.7741935 L0,64 L26.8387097,64 L26.8387097,56.7741935 C26.8387097,50.8510968 22.976,45.819871 17.6412903,44.0454194 Z M8.25806452,38.1935484 C8.25806452,35.3476129 10.5734194,33.0322581 13.4193548,33.0322581 C16.2652903,33.0322581 18.5806452,35.3476129 18.5806452,38.1935484 C18.5806452,41.0394839 16.2652903,43.3548387 13.4193548,43.3548387 C10.5734194,43.3548387 8.25806452,41.0394839 8.25806452,38.1935484 Z M9.80645161,56.7741935 L8.25806452,56.7741935 L8.25806452,52.6451613 L14.4516129,52.6451613 L14.4516129,61.9354839 L13.0704516,61.9354839 C13.2934194,61.4658065 13.4193548,60.9403871 13.4193548,60.3870968 C13.4193548,58.3948387 11.7987097,56.7741935 9.80645161,56.7741935 L9.80645161,56.7741935 Z M24.7741935,61.9354839 L20.6451613,61.9354839 L20.6451613,52.6451613 L18.5806452,52.6451613 L18.5806452,61.9354839 L16.516129,61.9354839 L16.516129,50.5806452 L6.19354839,50.5806452 L6.19354839,56.7741935 L4.12903226,56.7741935 L4.12903226,58.8387097 L9.80645161,58.8387097 C10.660129,58.8387097 11.3548387,59.5334194 11.3548387,60.3870968 C11.3548387,61.2407742 10.660129,61.9354839 9.80645161,61.9354839 L2.06451613,61.9354839 L2.06451613,56.7741935 C2.06451613,50.5135484 7.15870968,45.4193548 13.4193548,45.4193548 C19.68,45.4193548 24.7741935,50.5135484 24.7741935,56.7741935 L24.7741935,61.9354839 Z" id="Shape"></path>
                <path d="M54.8025806,44.0454194 C56.6183226,42.7313548 57.8064516,40.6007742 57.8064516,38.1935484 C57.8064516,34.2100645 54.5651613,30.9677419 50.5806452,30.9677419 C46.596129,30.9677419 43.3548387,34.2100645 43.3548387,38.1935484 C43.3548387,40.6007742 44.5429677,42.7313548 46.3587097,44.0454194 C41.024,45.819871 37.1612903,50.8510968 37.1612903,56.7741935 L37.1612903,64 L64,64 L64,56.7741935 C64,50.8510968 60.1372903,45.819871 54.8025806,44.0454194 Z M45.4193548,38.1935484 C45.4193548,35.3476129 47.7347097,33.0322581 50.5806452,33.0322581 C53.4265806,33.0322581 55.7419355,35.3476129 55.7419355,38.1935484 C55.7419355,41.0394839 53.4265806,43.3548387 50.5806452,43.3548387 C47.7347097,43.3548387 45.4193548,41.0394839 45.4193548,38.1935484 Z M46.9677419,56.7741935 L45.4193548,56.7741935 L45.4193548,52.6451613 L51.6129032,52.6451613 L51.6129032,61.9354839 L50.2317419,61.9354839 C50.4547097,61.4658065 50.5806452,60.9403871 50.5806452,60.3870968 C50.5806452,58.3948387 48.96,56.7741935 46.9677419,56.7741935 Z M61.9354839,61.9354839 L57.8064516,61.9354839 L57.8064516,52.6451613 L55.7419355,52.6451613 L55.7419355,61.9354839 L53.6774194,61.9354839 L53.6774194,50.5806452 L43.3548387,50.5806452 L43.3548387,56.7741935 L41.2903226,56.7741935 L41.2903226,58.8387097 L46.9677419,58.8387097 C47.8214194,58.8387097 48.516129,59.5334194 48.516129,60.3870968 C48.516129,61.2407742 47.8214194,61.9354839 46.9677419,61.9354839 L39.2258065,61.9354839 L39.2258065,56.7741935 C39.2258065,50.5135484 44.32,45.4193548 50.5806452,45.4193548 C56.8412903,45.4193548 61.9354839,50.5135484 61.9354839,56.7741935 L61.9354839,61.9354839 Z" id="Shape"></path>
                <path d="M25.7692903,18.5414194 C26.4392258,19.0482581 26.8387097,19.8936774 26.8387097,20.8030968 L26.8387097,21.6774194 C26.8387097,24.5233548 29.1540645,26.8387097 32,26.8387097 C34.8459355,26.8387097 37.1612903,24.5233548 37.1612903,21.6774194 L37.1612903,20.8805161 C37.1612903,19.9298065 37.6051613,19.035871 38.3793548,18.4268387 C40.8856774,16.4552258 42.3225806,13.5019355 42.3225806,10.3225806 C42.3225806,7.50554839 41.2087742,4.87535484 39.1876129,2.91303226 C37.1664516,0.952774194 34.5156129,-0.0753548387 31.6820645,0.00412903226 C26.1460645,0.171354839 21.6578065,4.81651613 21.6773553,10.3597419 C21.6887742,13.5969032 23.1803871,16.5790968 25.7692903,18.5414194 Z M35.0967742,21.6774194 C35.0967742,23.3847742 33.7073548,24.7741935 32,24.7741935 C30.2926452,24.7741935 28.9032258,23.3847742 28.9032258,21.6774194 L28.9032258,20.8030968 C28.9032258,20.7494194 28.896,20.6978065 28.8939355,20.6451613 L35.1101935,20.6451613 C35.1070968,20.7236129 35.0967742,20.8010323 35.0967742,20.8805161 L35.0967742,21.6774194 Z M32,12.3870968 C30.8614194,12.3870968 29.9354839,11.4611613 29.9354839,10.3225806 C29.9354839,9.184 30.8614194,8.25806452 32,8.25806452 C33.1385806,8.25806452 34.0645161,9.184 34.0645161,10.3225806 C34.0645161,11.4611613 33.1385806,12.3870968 32,12.3870968 Z M31.744,2.06864516 C31.8296774,2.06554839 31.9153548,2.06451613 32.0010323,2.06451613 C34.1615484,2.06451613 36.1940645,2.88619355 37.7496774,4.39535484 C39.3672258,5.9643871 40.2580645,8.06916129 40.2580645,10.3225806 C40.2580645,12.8650323 39.108129,15.2268387 37.1034839,16.8030968 C36.4789677,17.2944516 35.9876129,17.9024516 35.6459355,18.5806452 L33.0322581,18.5806452 L33.0322581,14.3050323 C34.8077419,13.8436129 36.1290323,12.2415484 36.1290323,10.3225806 C36.1290323,8.04541935 34.2771613,6.19354839 32,6.19354839 C29.7228387,6.19354839 27.8709677,8.04541935 27.8709677,10.3225806 C27.8709677,12.2415484 29.1922581,13.8436129 30.9677419,14.3050323 L30.9677419,18.5806452 L28.3901935,18.5806452 C28.0660645,17.9189677 27.5994839,17.3378065 27.0152258,16.896 C24.9434839,15.3259355 23.7501935,12.9403871 23.7418856,10.3514839 C23.7264516,5.91690323 27.3156129,2.20180645 31.744,2.06864516 Z" id="Shape"></path>
                <path d="M39.2258065,37.1612903 C40.9331613,37.1612903 42.3225806,35.771871 42.3225806,34.0645161 C42.3225806,32.3571613 40.9331613,30.9677419 39.2258065,30.9677419 C37.8818065,30.9677419 36.7463226,31.8338065 36.3189677,33.0322581 L27.68,33.0322581 C27.2526452,31.8338065 26.1171613,30.9677419 24.7731613,30.9677419 C23.0658065,30.9677419 21.6763871,32.3571613 21.6763871,34.0645161 C21.6763871,35.771871 23.0658065,37.1612903 24.7731613,37.1612903 C26.1171613,37.1612903 27.2526452,36.2952258 27.68,35.0967742 L36.3189677,35.0967742 C36.7463226,36.2952258 37.8818065,37.1612903 39.2258065,37.1612903 Z M39.2258065,33.0322581 C39.7945806,33.0322581 40.2580645,33.4947097 40.2580645,34.0645161 C40.2580645,34.6343226 39.7945806,35.0967742 39.2258065,35.0967742 C38.6570323,35.0967742 38.1935484,34.6343226 38.1935484,34.0645161 C38.1935484,33.4947097 38.6570323,33.0322581 39.2258065,33.0322581 Z M24.7741935,35.0967742 C24.2054194,35.0967742 23.7419355,34.6343226 23.7419355,34.0645161 C23.7419355,33.4947097 24.2054194,33.0322581 24.7741935,33.0322581 C25.3429677,33.0322581 25.8064516,33.4947097 25.8064516,34.0645161 C25.8064516,34.6343226 25.3429677,35.0967742 24.7741935,35.0967742 Z" id="Shape"></path>
            </g>
        </g>
    </g>
</svg>