<?xml version="1.0" encoding="UTF-8"?>
<svg width="64px" height="64px" viewBox="0 0 64 64" version="1.1" xmlns="http://www.w3.org/2000/svg" xmlns:xlink="http://www.w3.org/1999/xlink">
    <title>ic_networking</title>
    <g id="for_export" stroke="none" stroke-width="1" fill="none" fill-rule="evenodd">
        <g id="keepfit_for_expert_3" transform="translate(-735.000000, -2036.000000)" fill="#000000" fill-rule="nonzero">
            <g id="ic_networking" transform="translate(735.000000, 2036.000000)">
                <path d="M51.2,25.6 C58.2583333,25.6 64,19.8583333 64,12.8 C64,5.74166667 58.2583333,0 51.2,0 C46.0744792,0 41.6552083,3.03489587 39.6130208,7.39635413 L36.1854167,6.13125 C36.2260416,5.86875 36.2666667,5.60625 36.2666667,5.33333333 C36.2666667,2.39270827 33.8739584,0 30.9333333,0 C27.9927083,0 25.6,2.39270827 25.6,5.33333333 C25.6,8.2739584 27.9927083,10.6666667 30.9333333,10.6666667 C32.84375,10.6666667 34.5098959,9.64791667 35.4515625,8.13437493 L38.8734375,9.39739587 C38.5729167,10.4833333 38.4,11.6203125 38.4,12.8 C38.4,14.1973959 38.6322917,15.5390625 39.0484375,16.7989584 L27.3171875,21.7708333 C25.1692708,17.7098959 20.9057292,14.9333333 16,14.9333333 C14.4104167,14.9333333 12.89375,15.2385416 11.4880208,15.7697917 L8.5375,9.5692708 C9.82291667,8.5942708 10.6666667,7.06666667 10.6666667,5.33333333 C10.6666667,2.39270827 8.2739584,0 5.33333333,0 C2.39270827,0 -3.78956126e-15,2.39270827 -3.78956126e-15,5.33333333 C-3.78956126e-15,8.2739584 2.39270827,10.6666667 5.33333333,10.6666667 C5.77708333,10.6666667 6.20260413,10.5963541 6.61562507,10.4927083 L9.5625,16.6869792 C5.76406253,18.9098959 3.2,23.0229167 3.2,27.7333333 C3.2,32.1578125 5.45729173,36.0630208 8.87916667,38.3625 L6.92812507,41.8697917 C6.42031253,41.7098959 5.89218747,41.6 5.33333333,41.6 C2.39270827,41.6 -3.78956126e-15,43.9927083 -3.78956126e-15,46.9333333 C-3.78956126e-15,49.8739584 2.39270827,52.2666667 5.33333333,52.2666667 C8.2739584,52.2666667 10.6666667,49.8739584 10.6666667,46.9333333 C10.6666667,45.3182292 9.92968747,43.8859375 8.79270827,42.9078125 L10.7479167,39.3932292 C12.3520833,40.1192708 14.1270833,40.5333333 16,40.5333333 C18.9270833,40.5333333 21.6192708,39.5348959 23.7781251,37.875 L27.9765625,42.49375 C25.8473959,44.7807292 24.5333333,47.8359375 24.5333333,51.2 C24.5333333,51.8526041 24.5984375,52.4885416 24.6921875,53.1145833 L19.7526041,54.2869792 C18.9026041,52.4692708 17.06875,51.2 14.9333333,51.2 C11.9927083,51.2 9.6,53.5927083 9.6,56.5333333 C9.6,59.4739584 11.9927083,61.8666667 14.9333333,61.8666667 C17.8739584,61.8666667 20.2666667,59.4739584 20.2666667,56.5333333 C20.2666667,56.4744792 20.2505208,56.4192708 20.2494792,56.3604167 L25.1796875,55.1916667 C26.8609375,60.2994792 31.6692708,64 37.3333333,64 C44.3916667,64 50.1333333,58.2583333 50.1333333,51.2 C50.1333333,49.0114584 49.5796875,46.9505208 48.6067708,45.1479167 L54.8723959,41.0739584 C55.8411459,42.0552083 57.1828125,42.6666667 58.6666667,42.6666667 C61.6072917,42.6666667 64,40.2739584 64,37.3333333 C64,34.3927083 61.6072917,32 58.6666667,32 C55.7260416,32 53.3333333,34.3927083 53.3333333,37.3333333 C53.3333333,38.0223959 53.475,38.6770833 53.7140625,39.2822917 L47.4338541,43.3651041 C46.1770833,41.7494792 44.5453125,40.4447917 42.6666667,39.5786459 L47.8729167,25.1458333 C48.9354167,25.4322917 50.0479167,25.6 51.2,25.6 Z M30.9333333,8.53333333 C29.1692708,8.53333333 27.7333333,7.09739587 27.7333333,5.33333333 C27.7333333,3.5692708 29.1692708,2.13333333 30.9333333,2.13333333 C32.6973959,2.13333333 34.1333333,3.5692708 34.1333333,5.33333333 C34.1333333,7.09739587 32.6973959,8.53333333 30.9333333,8.53333333 Z M2.13333333,5.33333333 C2.13333333,3.5692708 3.5692708,2.13333333 5.33333333,2.13333333 C7.09739587,2.13333333 8.53333333,3.5692708 8.53333333,5.33333333 C8.53333333,7.09739587 7.09739587,8.53333333 5.33333333,8.53333333 C3.5692708,8.53333333 2.13333333,7.09739587 2.13333333,5.33333333 Z M5.33333333,50.1333333 C3.5692708,50.1333333 2.13333333,48.6973959 2.13333333,46.9333333 C2.13333333,45.1692708 3.5692708,43.7333333 5.33333333,43.7333333 C7.09739587,43.7333333 8.53333333,45.1692708 8.53333333,46.9333333 C8.53333333,48.6973959 7.09739587,50.1333333 5.33333333,50.1333333 Z M14.9333333,59.7333333 C13.1692708,59.7333333 11.7333333,58.2973959 11.7333333,56.5333333 C11.7333333,54.7692708 13.1692708,53.3333333 14.9333333,53.3333333 C16.6973959,53.3333333 18.1333333,54.7692708 18.1333333,56.5333333 C18.1333333,58.2973959 16.6973959,59.7333333 14.9333333,59.7333333 Z M58.6666667,34.1333333 C60.4307292,34.1333333 61.8666667,35.5692708 61.8666667,37.3333333 C61.8666667,39.0973959 60.4307292,40.5333333 58.6666667,40.5333333 C56.9026041,40.5333333 55.4666667,39.0973959 55.4666667,37.3333333 C55.4666667,35.5692708 56.9026041,34.1333333 58.6666667,34.1333333 Z M44.9182292,21.4015625 C45.3942708,18.9343749 47.5692708,17.0666667 50.1333333,17.0666667 L52.2666667,17.0666667 C54.8307292,17.0666667 57.0057292,18.9343749 57.4817708,21.4015625 C55.7171875,22.6932292 53.55,23.4666667 51.2,23.4666667 C48.85,23.4666667 46.6828125,22.6932292 44.9182292,21.4015625 Z M51.2,14.9333333 C49.4359375,14.9333333 48,13.4973959 48,11.7333333 C48,9.9692708 49.4359375,8.53333333 51.2,8.53333333 C52.9640625,8.53333333 54.4,9.9692708 54.4,11.7333333 C54.4,13.4973959 52.9640625,14.9333333 51.2,14.9333333 Z M51.2,2.13333333 C57.0817708,2.13333333 61.8666667,6.9182292 61.8666667,12.8 C61.8666667,15.4666667 60.8755208,17.9031251 59.2510416,19.775 C58.5036459,17.8067708 56.9453125,16.2359375 55.0036459,15.4604167 C55.9479167,14.4979167 56.5333333,13.1838541 56.5333333,11.7333333 C56.5333333,8.79270827 54.1406251,6.4 51.2,6.4 C48.2593749,6.4 45.8666667,8.79270827 45.8666667,11.7333333 C45.8666667,13.1838541 46.4520833,14.4979167 47.3963541,15.4604167 C45.4546875,16.2359375 43.8963541,17.8067708 43.1489584,19.775 C41.5244792,17.9031251 40.5333333,15.4666667 40.5333333,12.8 C40.5333333,6.9182292 45.3182292,2.13333333 51.2,2.13333333 L51.2,2.13333333 Z M5.33333333,27.7333333 C5.33333333,21.8515625 10.1182292,17.0666667 16,17.0666667 C21.8817708,17.0666667 26.6666667,21.8515625 26.6666667,27.7333333 C26.6666667,30.4083333 25.6692708,32.8510416 24.0364584,34.7255208 C23.2916667,32.75 21.7302083,31.1713541 19.7833333,30.39375 C20.7265625,29.43125 21.3119792,28.1171875 21.3119792,26.6666667 C21.3119792,23.7260416 18.9192708,21.3333333 15.9786459,21.3333333 C13.0380208,21.3333333 10.6453125,23.7260416 10.6453125,26.6666667 C10.6453125,28.1171875 11.2307292,29.43125 12.175,30.39375 C10.2390625,31.1656251 8.68281253,32.7307292 7.93281253,34.6911459 C6.31770827,32.8213541 5.33333333,30.3927083 5.33333333,27.7333333 L5.33333333,27.7333333 Z M12.7786459,26.6666667 C12.7786459,24.9026041 14.2145833,23.4666667 15.9786459,23.4666667 C17.7427083,23.4666667 19.1786459,24.9026041 19.1786459,26.6666667 C19.1786459,28.4307292 17.7427083,29.8666667 15.9786459,29.8666667 C14.2145833,29.8666667 12.7786459,28.4307292 12.7786459,26.6666667 Z M9.7005208,36.3208333 C10.18125,33.8604167 12.3531251,32 14.9119792,32 L17.0453125,32 C19.6140625,32 21.7932292,33.8739584 22.2625,36.3489584 C20.5015625,37.6328125 18.3411459,38.4 16,38.4 C13.6416667,38.4 11.4677083,37.6213541 9.7005208,36.3208333 Z M31.0338541,59.7875 C31.5145833,57.3270833 33.6864584,55.4666667 36.2453125,55.4666667 L38.3786459,55.4666667 C40.9473959,55.4666667 43.1265625,57.3406251 43.5958333,59.8156251 C41.8348959,61.0994792 39.6744792,61.8666667 37.3333333,61.8666667 C34.975,61.8666667 32.8010416,61.0880208 31.0338541,59.7875 Z M37.3119792,53.3333333 C35.5479167,53.3333333 34.1119792,51.8973959 34.1119792,50.1333333 C34.1119792,48.3692708 35.5479167,46.9333333 37.3119792,46.9333333 C39.0760416,46.9333333 40.5119792,48.3692708 40.5119792,50.1333333 C40.5119792,51.8973959 39.0760416,53.3333333 37.3119792,53.3333333 Z M48,51.2 C48,53.875 47.0026041,56.3177083 45.3697917,58.1921875 C44.625,56.2166667 43.0635416,54.6380208 41.1166667,53.8604167 C42.0598959,52.8979167 42.6453125,51.5838541 42.6453125,50.1333333 C42.6453125,47.1927083 40.2526041,44.8 37.3119792,44.8 C34.3713541,44.8 31.9786459,47.1927083 31.9786459,50.1333333 C31.9786459,51.5838541 32.5640625,52.8979167 33.5083333,53.8604167 C31.5723959,54.6322917 30.0161459,56.1973959 29.2661459,58.1578125 C27.6510416,56.2880208 26.6666667,53.8593749 26.6666667,51.2 C26.6666667,45.3182292 31.4515625,40.5333333 37.3333333,40.5333333 C43.2151041,40.5333333 48,45.3182292 48,51.2 Z M40.6604167,38.8541667 C39.5979167,38.5677083 38.4854167,38.4 37.3333333,38.4 C34.40625,38.4 31.7140625,39.3984375 29.5552083,41.0583333 L25.3567708,36.4395833 C27.4859375,34.1526041 28.8,31.0973959 28.8,27.7333333 C28.8,26.3359375 28.5677083,24.9942708 28.1515625,23.7343749 L39.8828125,18.7625 C41.1968749,21.2468749 43.3057292,23.2406251 45.8677083,24.4213541 L40.6604167,38.8541667 Z" id="Shape"></path>
            </g>
        </g>
    </g>
</svg>