<?xml version="1.0" encoding="UTF-8"?>
<svg width="32px" height="32px" viewBox="0 0 32 32" version="1.1" xmlns="http://www.w3.org/2000/svg" xmlns:xlink="http://www.w3.org/1999/xlink">
    <title>ic_select_biceps</title>
    <g id="Symbols" stroke="none" stroke-width="1" fill="none" fill-rule="evenodd">
        <g id="ic_select_biceps" fill="#000000" fill-rule="nonzero">
            <g id="strong" transform="translate(-0.000000, 0.000000)">
                <path d="M28.1952426,4.03188287 L27.8064918,2.9185682 C27.1969281,1.17287729 25.5450499,1.77636031e-15 23.6959838,1.77636031e-15 L19.2489751,1.77636031e-15 L16.4190946,2.82981803 L16.4190946,5.30163535 C16.4190946,7.39507694 18.1222229,9.09820527 20.215602,9.09820527 L21.9516054,9.09820527 C22.6418567,12.1277737 22.7196069,15.358905 22.1873558,18.442786 C22.0479806,18.3011607 21.9032303,18.163973 21.75273,18.0319727 C20.1814144,16.6544075 18.171973,15.9262811 15.9415311,15.9262811 C15.8144684,15.9262811 15.6879681,15.9295311 15.5617804,15.9343436 C15.1495296,14.4121531 14.2844029,13.035213 13.0742755,11.9970234 C11.6430227,10.7690835 9.81489417,10.0928322 7.92682798,10.0928322 C3.88157008,10.0928322 0.535876047,13.1460882 0.072687642,17.0688458 L0,17.0688458 L0,18.0017227 C0,21.737855 1.45425284,25.2509243 4.094883,27.893867 C6.73551316,30.5369346 10.2473325,31.99425 13.9834023,31.997625 L16.62047,32 L16.6444075,32 C21.0809787,32 25.4876748,30.8833103 29.3887449,28.7701812 L31.996125,27.3578034 C31.996125,27.3578659 32.4051258,14.2409653 28.1952426,4.03188287 Z M30.1341839,26.2445513 L28.5000557,27.129678 C24.8707986,29.0955568 20.7719156,30.1343089 16.6444075,30.1343089 C16.6370325,30.1343089 16.62947,30.1343089 16.6221575,30.1343089 L13.9850898,30.1319339 C10.7470835,30.1289963 7.70339005,28.8659314 5.41476058,26.5753019 C3.28425641,24.4428602 2.04487899,21.6570423 1.88375368,18.670099 L1.88375368,18.0017852 C1.88375368,14.6695287 4.59469647,11.9586484 7.92682798,11.9586484 C9.3695808,11.9586484 10.766146,12.4752119 11.8593982,13.4130887 C12.7217748,14.1529651 13.3540886,15.1172795 13.6910892,16.1859066 C11.7417729,16.6435325 10.0238946,17.688097 8.87120483,19.1684749 L10.3432702,20.3147897 C11.5732726,18.7351616 13.6660267,17.7921598 15.9414686,17.7921598 C17.7125971,17.7921598 19.2967877,18.3602859 20.5227276,19.4351005 C21.6729173,20.4434149 22.4043563,21.8288551 22.5824191,23.3362956 L24.4352977,23.1174202 C24.3271725,22.2017309 24.0626095,21.3209166 23.6596712,20.5084151 C24.6487356,16.5129698 24.6259856,12.1965863 23.6337962,8.20557853 L23.6337962,6.51232522 C23.6337962,4.87082201 22.2830435,3.53538191 20.6415403,3.53538191 L20.3919773,3.53538191 L20.3919773,5.40094805 L20.6415403,5.40094805 C21.254229,5.40094805 21.75273,5.89944902 21.75273,6.51213772 L21.75273,7.23245163 L20.215602,7.23245163 C19.1509749,7.23245163 18.2848482,6.36632493 18.2848482,5.30163535 L18.2848482,3.60263204 L20.0217266,1.86575364 L23.6959838,1.86575364 C24.7526733,1.86575364 25.6966752,2.53600495 26.0450509,3.5336319 L26.4337391,4.64688408 C28.8759939,11.6413977 30.1209963,18.9799746 30.1341839,26.2346137 C30.1341839,26.2379262 30.1341839,26.2412388 30.1341839,26.2445513 Z" id="Shape"></path>
            </g>
        </g>
    </g>
</svg>