<?xml version="1.0" encoding="UTF-8"?>
<svg width="64px" height="64px" viewBox="0 0 64 64" version="1.1" xmlns="http://www.w3.org/2000/svg" xmlns:xlink="http://www.w3.org/1999/xlink">
    <title>ic_snap</title>
    <g id="for_export" stroke="none" stroke-width="1" fill="none" fill-rule="evenodd">
        <g id="keepfit_for_expert_3" transform="translate(-251.000000, -1719.000000)" fill="#000000" fill-rule="nonzero">
            <g id="ic_snap" transform="translate(251.000000, 1719.000000)">
                <path d="M46.1133915,26.1704539 C45.9778366,25.8899826 45.9196703,25.5778069 45.9453833,25.2675036 L46.8467109,14.3743089 C46.948065,13.1483236 46.4940935,11.9599093 45.6011288,11.1137523 C44.7084139,10.2675953 43.4962837,9.87828068 42.2785366,10.0450406 C41.3411359,10.1736056 40.4339418,10.4795402 39.6117503,10.9406265 C39.5468437,10.8516296 39.47994,10.7637561 39.4085428,10.6785038 C37.7121097,8.65454219 34.6857161,8.38780115 32.6620041,10.0834853 L25.3311815,16.2187788 L25.3311815,14.8462545 C25.3311815,14.7439018 25.3616376,14.6452938 25.4194295,14.5607904 L26.9398659,12.3358681 C27.231571,11.9089826 27.1219787,11.3264461 26.6950932,11.034741 C26.267958,10.7427863 25.6855464,10.8526282 25.3939661,11.2795137 L23.8735297,13.504436 C23.6022951,13.9013646 23.4588766,14.3653218 23.4588766,14.8462545 L23.4588766,17.7857732 L17.6247745,22.6684948 L17.6247745,13.851062 C17.6247745,12.8418897 17.9257163,11.8680415 18.4951466,11.0348658 L23.849689,3.1986457 C24.2893062,2.55532173 24.9531007,2.12169592 25.7188734,1.97765326 C26.4846461,1.8336106 27.2605293,1.99625149 27.9039781,2.4359935 C28.547302,2.87548587 28.9809278,3.53940519 29.1249705,4.3051779 C29.2690132,5.07082578 29.1063723,5.84695858 28.6667551,6.49015772 L27.6842943,7.92808789 C27.3925892,8.35509823 27.5023063,8.93750987 27.9290669,9.22921498 C28.3557028,9.52092008 28.9384889,9.41120301 29.2300692,8.98444232 L30.21253,7.54651215 C30.9342411,6.49028254 31.2014815,5.21624146 30.9649469,3.95905113 C30.7284124,2.7018608 30.0164373,1.61180488 28.9602077,0.890093752 C27.9041029,0.168382621 26.6300618,-0.098857699 25.3726218,0.137676821 C24.1154315,0.37421134 23.0255004,1.08618649 22.3037893,2.14241609 L16.9492469,9.97863622 C16.1663738,11.1244868 15.7524696,12.4635593 15.7524696,13.8511869 L15.7524696,24.235614 L12.9447612,26.5853566 C10.9267909,28.2743005 9.84522279,30.8488445 10.0515508,33.4721933 L10.6475679,41.0495361 C10.6861373,41.54008 11.0960473,41.912419 11.5798509,41.9122942 C11.6044405,41.9122942 11.6292797,41.9112957 11.6542438,41.9094233 C12.1696269,41.8689816 12.5546976,41.4181305 12.514131,40.9028722 L11.918114,33.3255295 C11.7592177,31.304938 12.5922686,29.3220423 14.1465313,28.0212897 L33.8641487,11.5190439 C35.0968742,10.485906 36.9404705,10.6484221 37.9736083,11.8811476 C39.0066213,13.113998 38.8442301,14.9574694 37.6113797,15.9906073 L27.347529,24.5921008 C26.7099468,24.7462539 26.0995754,25.0529375 25.5705869,25.51315 L20.5538083,29.8798643 C20.1638696,30.2193756 20.1229285,30.8106495 20.462315,31.2005882 C20.8018263,31.5905269 21.3929753,31.6313432 21.7831637,31.2920815 L26.7999423,26.9253672 C27.6724364,26.1655859 28.9454789,26.1583463 29.8268352,26.9080172 L37.4144132,33.3618522 C38.0079339,33.8667504 38.3692887,34.5724845 38.4319485,35.3491166 C38.4947332,36.1258735 38.2512087,36.8804124 37.7463105,37.4738082 C37.3772168,37.9076837 36.8894189,38.2197345 36.3485725,38.3792549 L31.039964,33.8638795 C29.4477559,32.5094542 27.1475669,32.5226851 25.5707117,33.8950846 L20.5539331,38.2617989 C20.1639944,38.6013102 20.1230533,39.1925841 20.4624398,39.5825228 C20.8019511,39.9725863 21.3931002,40.0134026 21.7832885,39.6740161 L26.8000671,35.3073018 C27.6725612,34.5476453 28.9456037,34.5401561 29.82696,35.2899518 L37.4145381,41.7437868 C38.0080587,42.248685 38.3694136,42.9544191 38.4320734,43.7310512 C38.494858,44.5078081 38.2513335,45.262347 37.7464353,45.8557428 C37.2416619,46.4492635 36.5359278,46.8106183 35.7592957,46.8732781 C34.9815402,46.9358131 34.2278751,46.6924135 33.6346041,46.1876401 L28.9378648,42.1926407 C28.5661499,41.8764708 28.0143192,41.8988136 27.6693158,42.2436922 L26.2754473,43.6375608 C25.9098485,44.0032843 25.9098485,44.5959312 26.2754473,44.96153 C26.641046,45.3270039 27.2338177,45.3270039 27.5992916,44.96153 L28.3825392,44.1782824 L32.4213505,47.6137123 C33.2952176,48.3571422 34.3817786,48.755319 35.516645,48.755319 C35.6470822,48.755319 35.7783932,48.7499517 35.909829,48.739342 C37.1848687,48.6364901 38.3435758,48.0430942 39.1725075,47.0686219 C40.0014393,46.0941496 40.4012388,44.8553079 40.2982621,43.5801434 C40.1954101,42.304979 39.6020143,41.1462719 38.627542,40.3173401 L37.9296715,39.7238194 C38.3961251,39.4528345 38.8177682,39.1035872 39.1725075,38.6865625 C40.8835446,36.6750829 40.6391464,33.6464425 38.627542,31.9352807 L35.2635094,29.0738995 L37.2967077,18.696712 L38.8141484,17.4250425 C39.7946121,16.6034751 40.3964957,15.4491367 40.508834,14.1747212 C40.5545182,13.6559679 40.5154494,13.1430812 40.3993665,12.6505401 C41.0511783,12.2617248 41.7782567,12.0029723 42.5330452,11.8996211 C43.1858555,11.8097504 43.835046,12.0188245 44.3136072,12.4722967 C44.7920435,12.925769 45.0353183,13.5624774 44.9810215,14.2195317 L44.0796939,25.1127264 C44.0263956,25.7560504 44.146972,26.4036182 44.4280674,26.9850313 L46.0950429,30.4326936 C48.1953945,34.7768154 48.2664173,39.7928451 46.2898874,44.1947587 L45.2180553,46.5818226 C45.0062352,47.0535187 45.2169319,47.6075961 45.6886279,47.8192914 C45.8131986,47.8752109 45.9433862,47.9016728 46.0715767,47.9016728 C46.4288124,47.9016728 46.770196,47.6959689 46.9260966,47.3487187 L47.9979288,44.9616548 C50.2017565,40.0538444 50.1224955,34.4611448 47.7807414,29.6176168 L46.1133915,26.1704539 Z M33.6278638,27.683401 L31.0397143,25.4819449 C30.7140581,25.2049686 30.3585698,24.9861586 29.9859811,24.8235177 L35.0136191,20.6103324 L33.6278638,27.683401 Z" id="Shape"></path>
                <path d="M44.812514,49.7701083 C44.340818,49.558413 43.7868654,49.7687352 43.5750453,50.2406809 L41.1774965,55.5798704 C41.1233244,55.7004468 41.0953647,55.8311337 41.0953647,55.9633184 L41.0953647,63.0638475 C41.0953647,63.5809782 41.5143865,64 42.0315171,64 C42.5486477,64 42.9676696,63.5809782 42.9676696,63.0638475 L42.9676696,56.1639047 L45.2830867,51.007577 C45.4949067,50.5360058 45.2840852,49.9819284 44.812514,49.7701083 Z" id="Path"></path>
                <path d="M39.3774625,5.82586394 C39.8945931,5.82586394 40.313615,5.4068421 40.313615,4.88971149 L40.313615,0.936152452 C40.313615,0.419021838 39.8945931,0 39.3774625,0 C38.8603319,0 38.4413101,0.419021838 38.4413101,0.936152452 L38.4413101,4.88971149 C38.4413101,5.40671728 38.8604567,5.82586394 39.3774625,5.82586394 Z" id="Path"></path>
                <path d="M43.3739597,6.75702358 C43.518252,6.83740787 43.6744023,6.87535325 43.8286802,6.87535325 C44.1573321,6.87535325 44.4762481,6.70197782 44.6475015,6.39454535 L46.5711076,2.94051726 C46.8226206,2.4887925 46.6603541,1.91861325 46.2087542,1.66710029 C45.7570294,1.41558733 45.1868502,1.57785375 44.9353372,2.0294537 L43.0117312,5.48348179 C42.7600934,5.93533137 42.9223598,6.5053858 43.3739597,6.75702358 L43.3739597,6.75702358 Z" id="Path"></path>
                <path d="M51.3652067,6.44746917 C51.0929736,6.0079768 50.5161789,5.87242192 50.0764368,6.14453024 L46.7152751,8.22615883 C46.2757827,8.49839196 46.140103,9.07543633 46.4123361,9.51492871 C46.5894562,9.80089208 46.8956405,9.95829051 47.2090643,9.95829051 C47.3773221,9.95829051 47.547577,9.91298073 47.701106,9.81786764 L51.0622678,7.73623905 C51.501885,7.46413073 51.6375647,6.88708636 51.3652067,6.44746917 L51.3652067,6.44746917 Z" id="Path"></path>
                <path d="M15.5551287,51.2502277 C14.0868671,49.4051336 13.1493417,47.1911955 12.8437815,44.8479435 C12.7768778,44.3354312 12.3076782,43.9749501 11.794417,44.0406056 C11.2817799,44.1075093 10.9203003,44.577333 10.987204,45.0899701 C11.3367009,47.7709859 12.4096564,50.3043393 14.0899877,52.4159247 L17.9524279,57.2700624 L17.9524279,63.0029352 C17.9524279,63.5200658 18.3715745,63.9390877 18.8885803,63.9390877 C19.4055861,63.9390877 19.8247328,63.5200658 19.8247328,63.0029352 L19.8247328,56.9430332 C19.8247328,56.7313379 19.7529611,56.5257588 19.6211508,56.3601222 L15.5551287,51.2502277 Z" id="Path"></path>
            </g>
        </g>
    </g>
</svg>