<?xml version="1.0" encoding="UTF-8"?>
<svg width="32px" height="32px" viewBox="0 0 32 32" version="1.1" xmlns="http://www.w3.org/2000/svg" xmlns:xlink="http://www.w3.org/1999/xlink">
    <title>ic_select_diet</title>
    <g id="Symbols" stroke="none" stroke-width="1" fill="none" fill-rule="evenodd">
        <g id="ic_select_diet" fill="#000000" fill-rule="nonzero">
            <g id="nutrient" transform="translate(0.000000, -0.000000)">
                <path d="M28.562474,10.6251116 L25.8259308,10.6251116 C25.518043,9.95681877 25.1470969,9.35503525 24.7126532,8.82277276 C23.5142313,7.35486271 21.8910911,6.49068125 19.9820237,6.29366319 C21.4417142,4.31802378 21.3139034,1.63920557 21.3070015,1.515034 C21.2807115,1.03792402 20.8996635,0.657001513 20.4225535,0.630586033 C20.2858958,0.623244915 17.0495918,0.468579461 15.0676152,2.45055607 C14.8508325,2.66733869 14.659838,2.89930549 14.4911805,3.14043302 C14.0009569,1.98323425 13.2118807,0.955854071 12.1875123,0.187546371 C11.7733979,-0.123102173 11.1857319,-0.0391498902 10.8750206,0.375027254 C10.5643093,0.789204397 10.6483243,1.37680763 11.0625015,1.68751892 C12.3931263,2.68553462 13.187473,4.27429079 13.187473,5.9375248 L13.187473,7.43894048 C12.0282664,6.66034266 10.634646,6.24999294 9.12494804,6.24999294 C6.84355417,6.24999294 4.91139677,7.13958596 3.53741539,8.82264727 C2.20264939,10.4575835 1.46295323,12.7429303 1.33332288,15.6249782 L0.937529902,15.6249782 C0.419761414,15.6251037 0,16.0448651 0,16.5626336 L0,24.0626219 C0,24.5803903 0.419761414,25.000089 0.937529902,25.000089 L3.10428938,25.000089 C4.98712951,29.3181728 7.90807915,31.8750782 11,31.8750782 C11.8860244,31.8750782 13.0639289,31.546673 14.1250029,30.1783386 C15.1860142,31.546673 16.3639815,31.8750782 17.249998,31.8750782 C20.3419267,31.8750782 23.2629391,29.3181728 25.1457165,25.000089 L28.562474,25.000089 C30.4579258,25.000089 32,23.4580148 32,21.562563 L32,14.0626375 C32,12.1671857 30.4579258,10.6251116 28.562474,10.6251116 Z M16.3933459,3.77647509 C17.2453549,2.92446608 18.5277292,2.63841342 19.3929146,2.54461024 C19.2991114,3.41042305 19.0129332,4.69242084 18.1611752,5.54424161 C17.3098564,6.39549768 16.0288625,6.68180132 15.1637399,6.77585548 C15.2591117,5.90878777 15.5464192,4.62352727 16.3933459,3.77647509 Z M9.12501078,8.12511549 C10.4041223,8.12511549 11.5143254,8.48633618 12.4247496,9.19898942 C13.4259025,9.98241857 14.8241033,9.98241857 15.8251935,9.19898942 C16.7356805,8.48633618 17.8458836,8.12511549 19.1249951,8.12511549 C22.6727006,8.12511549 24.7978604,10.8435255 25.0393644,15.6251037 L3.21064149,15.6251037 C3.45214547,10.8435883 5.57730528,8.12511549 9.12501078,8.12511549 L9.12501078,8.12511549 Z M20.809625,28.2837652 C19.670434,29.4227053 18.4727649,30.0001518 17.249998,30.0001518 C16.3857538,30.0001518 15.6183873,29.318863 14.9691061,27.9751245 C14.8126838,27.6512369 14.484655,27.4454345 14.1250029,27.4454345 C13.7653509,27.4454345 13.4373848,27.6512369 13.2808998,27.9750618 C12.6316186,29.3188002 11.8641893,30.0001518 11.0000078,30.0001518 C9.77717822,30.0001518 8.57957192,29.4227053 7.44031812,28.2837652 C6.59634042,27.4399758 5.8242053,26.3202355 5.17134768,25.0001518 L23.078721,25.0001518 C22.4257378,26.3201728 21.6536655,27.439913 20.809625,28.2837652 L20.809625,28.2837652 Z M30.1250029,21.5626258 C30.1250029,22.424172 29.4240202,23.125092 28.5624113,23.125092 L28.1873868,23.125092 L28.1873868,21.5626258 C28.1873868,21.0448573 27.7676254,20.6251586 27.2499196,20.6251586 C26.7321511,20.6251586 26.3124525,21.04492 26.3124525,21.5626258 L26.3124525,23.125092 L24.4374554,23.125092 L24.4374554,20.3126277 C24.4374554,19.7948593 24.017694,19.3751606 23.4999882,19.3751606 C22.9822825,19.3751606 22.5625211,19.794922 22.5625211,20.3126277 L22.5625211,23.125092 L20.687524,23.125092 L20.687524,21.5626258 C20.687524,21.0448573 20.2677626,20.6251586 19.7500569,20.6251586 C19.2322884,20.6251586 18.8125897,21.04492 18.8125897,21.5626258 L18.8125897,23.125092 L16.9375926,23.125092 L16.9375926,20.3126277 C16.9375926,19.7948593 16.5178312,19.3751606 16.0000627,19.3751606 C15.4822943,19.3751606 15.0625956,19.794922 15.0625956,20.3126277 L15.0625956,23.125092 L13.1875985,23.125092 L13.1875985,21.5626258 C13.1875985,21.0448573 12.7678371,20.6251586 12.2500686,20.6251586 C11.7323001,20.6251586 11.3126015,21.04492 11.3126015,21.5626258 L11.3126015,23.125092 L9.43760441,23.125092 L9.43760441,20.3126277 C9.43760441,19.7948593 9.017843,19.3751606 8.50013725,19.3751606 C7.98243151,19.3751606 7.56260735,19.794922 7.56260735,20.3126277 L7.56260735,23.125092 L5.6874848,23.125092 L5.6874848,21.5626258 C5.6874848,21.0448573 5.26772339,20.6251586 4.75001765,20.6251586 C4.2323119,20.6251586 3.81248775,21.04492 3.81248775,21.5626258 L3.81248775,23.125092 L1.87499706,23.125092 L1.87499706,17.5001008 L28.562474,17.5001008 C29.1247284,17.5001008 29.655987,17.3643215 30.1250029,17.1240096 L30.1250029,21.5626258 L30.1250029,21.5626258 Z M28.562474,15.6251037 L26.9164948,15.6251037 C26.8654207,14.4896146 26.7192257,13.447113 26.4796041,12.5001086 L28.562474,12.5001086 C29.4240202,12.5001086 30.1250029,13.2010286 30.1250029,14.0626375 C30.1250029,14.9242465 29.4240202,15.6251037 28.562474,15.6251037 L28.562474,15.6251037 Z" id="Shape"></path>
            </g>
        </g>
    </g>
</svg>