<?xml version="1.0" encoding="UTF-8"?>
<svg width="32px" height="32px" viewBox="0 0 32 32" version="1.1" xmlns="http://www.w3.org/2000/svg" xmlns:xlink="http://www.w3.org/1999/xlink">
    <title>ic_select_revision</title>
    <g id="Symbols" stroke="none" stroke-width="1" fill="none" fill-rule="evenodd">
        <g id="ic_select_revision" fill="#000000" fill-rule="nonzero">
            <g id="chiropractic" transform="translate(2.000000, 0.000000)">
                <path d="M20,10.125 L18.5133125,10.125 L18.7879375,9.850375 C19.1540625,9.48425 19.1540625,8.8906875 18.7879375,8.5245625 C18.4218125,8.1584375 17.82825,8.1584375 17.462125,8.5245625 L15.587125,10.3995625 C15.221,10.7656875 15.221,11.35925 15.587125,11.725375 L17.462125,13.600375 C17.82825,13.9665 18.4218125,13.9665 18.7879375,13.600375 C19.1540625,13.23425 19.1540625,12.6406875 18.7879375,12.2745625 L18.5133125,12 L20,12 C20.51775,12 20.9375,11.58025 20.9375,11.0625 C20.9375,10.54475 20.51775,10.125 20,10.125 Z" id="Path"></path>
                <path d="M13.27175,15.652375 C13.7880625,15.613875 14.1754375,15.1640625 14.136875,14.64775 C14.09275,14.0549375 14.0764375,13.45725 14.0888125,12.863375 C14.0995625,12.3456875 13.688625,11.917375 13.170875,11.906625 C13.1643125,11.9065 13.1576875,11.9064375 13.151125,11.9064375 C12.642375,11.9064375 12.2248125,12.3135 12.2141875,12.8245 C12.200625,13.47775 12.2185,14.13525 12.267125,14.78725 C12.303875,15.279875 12.7149375,15.6550625 13.201,15.6550625 C13.224375,15.655 13.248,15.654125 13.27175,15.652375 L13.27175,15.652375 Z" id="Path"></path>
                <path d="M13.3875625,10.0413125 C13.4536875,10.0555 13.5195625,10.06225 13.5845625,10.06225 C14.01725,10.06225 14.4061875,9.760875 14.500375,9.3206875 C14.624375,8.7409375 14.7778125,8.16025 14.9564375,7.5948125 C15.112375,7.101125 14.8385,6.5744375 14.3448125,6.4185 C13.8508125,6.2625 13.324375,6.5364375 13.1685,7.0301875 C12.9720625,7.652125 12.8033125,8.29075 12.6669375,8.9284375 C12.558625,9.43475 12.88125,9.933 13.3875625,10.0413125 L13.3875625,10.0413125 Z" id="Path"></path>
                <path d="M14.58875,21.1169375 C15.090125,20.987875 15.3920625,20.47675 15.2629375,19.9753125 C15.1119375,19.3655 14.902875,18.7696875 14.73875,18.1628125 C14.60325,17.6630625 14.08875,17.36775 13.588625,17.50325 C13.0889375,17.6386875 12.793625,18.153625 12.9290625,18.653375 C13.0893125,19.2531875 13.2971875,19.84075 13.447125,20.44275 C13.5743125,20.9481875 14.1008125,21.246625 14.58875,21.1169375 L14.58875,21.1169375 Z" id="Path"></path>
                <path d="M14.8821875,22.971625 C14.365375,23.0035625 13.9723125,23.4484375 14.0043125,23.9651875 C14.041,24.559625 14.0496875,25.1550625 14.02975,25.75025 C14.012625,26.26775 14.4181875,26.7011875 14.935625,26.718375 C14.94625,26.71875 14.9568125,26.718875 14.9673125,26.718875 C15.4706875,26.718875 15.8869375,26.319375 15.90375,25.8125 C15.9255,25.1580625 15.916125,24.503 15.87575,23.849375 C15.843875,23.3326875 15.3978125,22.93975 14.8821875,22.971625 L14.8821875,22.971625 Z" id="Path"></path>
                <path d="M21.5625,2.625 L18.553,2.625 L18.0995,0.720375 C17.9989375,0.2980625 17.621625,0 17.1875,0 L10.9375,0 C10.503375,0 10.1260625,0.2980625 10.0255,0.720375 L9.572,2.625 L6.5625,2.625 C2.9439375,2.625 0,5.5689375 0,9.1875 L0,31.0625 C0,31.58025 0.41975,32 0.9375,32 L27.1875,32 C27.70525,32 28.125,31.58025 28.125,31.0625 L28.125,9.1875 C28.125,5.5689375 25.1810625,2.625 21.5625,2.625 Z M26.25,30.125 L24.0349375,30.125 C23.9764375,29.119 23.82425,28.1189375 23.57975,27.141125 C23.070625,25.1045625 22.8125,23.0076875 22.8125,20.908625 L22.8125,19.3381875 C23.642,16.7988125 24.0625,14.157375 24.0625,11.4846875 L24.0625,11.0625 C24.0625,10.54475 23.64275,10.125 23.125,10.125 C22.60725,10.125 22.1875,10.54475 22.1875,11.0625 L22.1875,11.484625 C22.1875,14.0066875 21.783125,16.4985 20.985625,18.891 C20.95375,18.986625 20.9375,19.0866875 20.9375,19.1875 L20.9375,20.908625 C20.9375,23.1608125 21.2145,25.41075 21.76075,27.5959375 C21.9680625,28.425125 22.1005625,29.272375 22.1566875,30.125 L15.3008125,30.125 C15.3359375,29.98425 15.369625,29.8434375 15.401625,29.7026875 C15.516375,29.1978125 15.2000625,28.6955 14.6951875,28.58075 C14.19,28.4659375 13.688,28.7823125 13.57325,29.2871875 C13.5096875,29.5668125 13.4385,29.84675 13.361625,30.125 L5.9683125,30.125 C6.0244375,29.272375 6.1569375,28.4250625 6.36425,27.5958125 C6.9105,25.41075 7.1875,23.1608125 7.1875,20.908625 L7.1875,19.1875 C7.1875,19.08675 7.17125,18.986625 7.139375,18.891 C6.341875,16.4985625 5.9375,14.0066875 5.9375,11.484625 L5.9375,11.0625 C5.9375,10.54475 5.51775,10.125 5,10.125 C4.48225,10.125 4.0625,10.54475 4.0625,11.0625 L4.0625,11.484625 C4.0625,14.157375 4.483,16.79875 5.3125,19.338125 L5.3125,20.9085625 C5.3125,23.0075625 5.054375,25.1045 4.5453125,27.141 C4.3008125,28.118875 4.148625,29.1189375 4.090125,30.125 L1.875,30.125 L1.875,9.1875 C1.875,6.6028125 3.9778125,4.5 6.5625,4.5 L10.3125,4.5 C10.746625,4.5 11.1239375,4.2019375 11.2245,3.779625 L11.678,1.875 L16.4470625,1.875 L16.9005625,3.779625 C17.0010625,4.2019375 17.378375,4.5 17.8125,4.5 L21.5625,4.5 C24.1471875,4.5 26.25,6.6028125 26.25,9.1875 L26.25,30.125 Z" id="Shape"></path>
            </g>
        </g>
    </g>
</svg>