<?xml version="1.0" encoding="UTF-8"?>
<svg width="64px" height="64px" viewBox="0 0 64 64" version="1.1" xmlns="http://www.w3.org/2000/svg" xmlns:xlink="http://www.w3.org/1999/xlink">
    <title>ic_won</title>
    <g id="for_export" stroke="none" stroke-width="1" fill="none" fill-rule="evenodd">
        <g id="keepfit_for_expert_3" transform="translate(-251.000000, -2355.000000)" fill="#000000" fill-rule="nonzero">
            <g id="ic_won" transform="translate(251.000000, 2355.000000)">
                <path d="M56.5164451,36.4418149 L54.4122662,36.0911629 L53.8497563,39.4663556 L50.6792217,39.4663556 L50.2925711,37.1432524 C50.0815133,35.8762385 48.8832965,35.0201408 47.6162827,35.2311987 C46.6357902,35.3945252 45.8674222,36.1627599 45.704229,37.1432524 L45.3167785,39.4663556 L42.1462439,39.4663556 L41.583734,36.0911629 L39.479555,36.4418149 L39.9836673,39.4663556 L38.3984001,39.4663556 L38.3984001,41.5996 L40.3391192,41.5996 L40.6947044,43.7328445 L38.3984001,43.7328445 L38.3984001,45.8660889 L41.0502896,45.8660889 L41.4369401,48.1891921 C41.647998,49.456206 42.8462147,50.3123037 44.1132286,50.1012458 C45.0937211,49.9379193 45.8620891,49.1696846 46.0252823,48.1891921 L46.4127328,45.8660889 L49.5832674,45.8660889 L49.9699179,48.1891921 C50.1809758,49.456206 51.3791925,50.3123037 52.6462064,50.1012458 C53.6266989,49.9379193 54.3950669,49.1696846 54.5582601,48.1891921 L54.9457106,45.8660889 L57.5976001,45.8660889 L57.5976001,43.7328445 L55.3012958,43.7328445 L55.656881,41.5996 L57.5976001,41.5996 L57.5976001,39.4663556 L56.0123328,39.4663556 L56.5164451,36.4418149 Z M47.8081413,37.4940377 C47.8257406,37.3892421 47.9250698,37.3184451 48.0299988,37.3361777 C48.1109287,37.3497771 48.1742594,37.4132411 48.1878588,37.4940377 L48.5166451,39.4663556 L47.479355,39.4663556 L47.8081413,37.4940377 Z M42.5018291,41.5996 L44.9611933,41.5996 L44.6056081,43.7328445 L42.8574143,43.7328445 L42.5018291,41.5996 Z M43.9213699,47.8384067 C43.9037707,47.9432024 43.8044415,48.0139994 43.6995125,47.9962668 C43.6185826,47.9826674 43.5552519,47.9192034 43.5416524,47.8384067 L43.2128661,45.8660889 L44.2501562,45.8660889 L43.9213699,47.8384067 Z M46.768318,43.7328445 L47.1239032,41.5996 L48.872097,41.5996 L49.2276822,43.7328445 L46.768318,43.7328445 Z M52.4543477,47.8384067 C52.4367485,47.9432024 52.3374193,48.0139994 52.2324903,47.9962668 C52.1515604,47.9826674 52.0882297,47.9192034 52.0746302,47.8384067 L51.7458439,45.8660889 L52.783134,45.8660889 L52.4543477,47.8384067 Z M53.1385859,43.7328445 L51.3903921,43.7328445 L51.0348069,41.5996 L53.4941711,41.5996 L53.1385859,43.7328445 Z" id="Shape"></path>
                <path d="M10.6662222,25.7922587 C10.6676888,22.0002833 12.4998792,18.4421649 15.5860172,16.2386567 L17.4083413,14.9340444 L31.656281,14.9340444 L33.4812716,16.2406566 C36.5659431,18.4441648 38.3972001,22.0013499 38.3984001,25.7922587 L38.3984001,26.6668889 L40.5316445,26.6668889 L40.5316445,25.7922587 C40.5300446,21.3121787 38.3660014,17.1084871 34.7206866,14.5040623 L33.0652889,13.3191784 L33.0652889,9.60093329 C33.0652889,9.01189117 32.5877088,8.53431107 31.9986667,8.53431107 L31.2314987,8.53431107 L32.4181159,3.78984209 C32.8263656,2.1560435 31.8329403,0.500645806 30.1991417,0.0922628224 C29.9572851,0.0318653389 29.7088955,0.00133284489 29.4595725,0.00133284489 C28.8001333,0.00279988334 28.1586934,0.216524311 27.6301821,0.611041207 L24.5323112,2.93454439 L21.4343069,0.611041207 C20.9059289,0.216524311 20.2643557,0.00266655556 19.6049165,0.00133284489 C17.9208533,0.00133284489 16.5558435,1.36674305 16.5559768,3.05080622 C16.5559768,3.29999583 16.5865089,3.54811883 16.6469064,3.78984209 L17.8331236,8.53431107 L17.0659556,8.53431107 C16.4769135,8.53431107 15.9993334,9.01189117 15.9993334,9.60093329 L15.9993334,13.3191784 L14.3460689,14.5025957 C10.6995542,17.1067539 8.53457773,21.3112454 8.53297779,25.7922587 L8.53297779,30.9333778 L10.6662222,30.9333778 L10.6662222,25.7922587 Z M18.1325778,12.8008 L18.1325778,10.6675555 L30.9320445,10.6675555 L30.9320445,12.8008 L18.1325778,12.8008 Z M18.7165535,3.27239698 C18.5938919,2.78175076 18.8921462,2.28457148 19.3827924,2.16190992 C19.455456,2.14377734 19.5301196,2.13457773 19.6050498,2.13457773 C19.8031749,2.13497771 19.9958335,2.1992417 20.1544936,2.31777009 L23.8923378,5.12111995 C24.271522,5.4055081 24.7931003,5.4055081 25.1722845,5.12111995 L28.9099954,2.31777009 C29.0687888,2.1992417 29.2615808,2.13497771 29.4597058,2.13457773 C29.9654181,2.13457773 30.375401,2.54456064 30.375401,3.05027291 C30.375401,3.12520312 30.3662014,3.19973334 30.3480688,3.27239698 L29.032657,8.53431107 L20.0319653,8.53431107 L18.7165535,3.27239698 Z" id="Shape"></path>
                <polygon id="Path" points="7.46635557 42.6662222 14.9327111 42.6662222 14.9327111 44.7994667 7.46635557 44.7994667"></polygon>
                <polygon id="Path" points="27.7321778 38.3997333 29.8654223 38.3997333 29.8654223 40.5329778 27.7321778 40.5329778"></polygon>
                <path d="M24.5323112,22.4004 C19.8218408,22.4057331 16.0046665,26.2229074 15.9993334,30.9333778 L18.1325778,30.9333778 C18.1325778,27.3988584 20.9977918,24.5336444 24.5323112,24.5336444 C28.0668305,24.5336444 30.9320445,27.3988584 30.9320445,30.9333778 L33.0652889,30.9333778 C33.0599558,26.2229074 29.2426482,22.4057331 24.5323112,22.4004 Z" id="Path"></path>
                <path d="M62.9307112,56.5323112 L55.9731345,56.5323112 C63.6333486,52.127828 66.272572,42.3474355 61.8679555,34.6872214 C57.463339,27.0270072 47.6830799,24.3877838 40.0228657,28.7924003 C32.3626516,33.1970168 29.7234282,42.9772759 34.1280447,50.6374901 C35.5375859,53.0888546 37.5715012,55.1227699 40.0228657,56.5323112 L25.5989334,56.5323112 L25.5989334,53.3324445 L29.8654223,53.3324445 L29.8654223,51.1992 L25.5989334,51.1992 L25.5989334,49.0659556 L31.9986667,49.0659556 L31.9986667,46.9327111 L25.5989334,46.9327111 L25.5989334,44.7994667 L29.8654223,44.7994667 L29.8654223,42.6662222 L25.5989334,42.6662222 L25.5989334,35.1998667 L31.9986667,35.1998667 L31.9986667,33.0666222 L4.2664889,33.0666222 C3.67744677,33.0666222 3.19986667,33.5442023 3.19986667,34.1332444 L3.19986667,56.5323112 L1.06662222,56.5323112 C0.477580101,56.5323112 1.42108547e-14,57.0098913 1.42108547e-14,57.5989334 C1.42108547e-14,57.7645265 0.0385317278,57.927853 0.112661972,58.0759802 L2.24590642,62.3424691 C2.42656556,62.7037873 2.7958835,62.9320445 3.19986667,62.9320445 L60.7974668,62.9320445 C61.2014499,62.9320445 61.5707679,62.7037873 61.751427,62.3424691 L63.8846715,58.0759802 C64.1481272,57.5490688 63.9345361,56.9084288 63.407758,56.6449731 C63.2596308,56.5708429 63.0963043,56.5323112 62.9307112,56.5323112 L62.9307112,56.5323112 Z M34.1319112,42.6662222 C34.1319112,35.0081413 40.3399192,28.8001333 47.9980001,28.8001333 C55.656081,28.8001333 61.864089,35.0081413 61.864089,42.6662222 C61.864089,50.3243032 55.656081,56.5323112 47.9980001,56.5323112 C40.343519,56.5236448 34.1405775,50.3207033 34.1319112,42.6662222 Z M23.4656889,56.5323112 L19.1992,56.5323112 L19.1992,35.1998667 L23.4656889,35.1998667 L23.4656889,56.5323112 Z M5.33311112,53.3324445 L9.59960002,53.3324445 L9.59960002,51.1992 L5.33311112,51.1992 L5.33311112,49.0659556 L11.7328445,49.0659556 L11.7328445,46.9327111 L5.33311112,46.9327111 L5.33311112,40.5329778 L9.59960002,40.5329778 L9.59960002,38.3997333 L5.33311112,38.3997333 L5.33311112,35.1998667 L17.0659556,35.1998667 L17.0659556,56.5323112 L5.33311112,56.5323112 L5.33311112,53.3324445 Z M60.1382942,60.7988 L3.85903921,60.7988 L2.79241698,58.6655556 L61.2049165,58.6655556 L60.1382942,60.7988 Z" id="Shape"></path>
            </g>
        </g>
    </g>
</svg>